<?xml version="1.0" encoding="UTF-8"?>
<svg version="1.1" xmlns="http://www.w3.org/2000/svg" width="2213" height="784">
<path d="M0 0 C2.19512983 1.25943303 4.39044763 2.51853847 6.5859375 3.77734375 C7.69291992 4.41784668 8.79990234 5.05834961 9.94042969 5.71826172 C15.14157577 8.714791 20.38359795 11.6371534 25.625 14.5625 C27.70314388 15.7265288 29.78126869 16.89059163 31.859375 18.0546875 C38.52253056 21.78136283 45.19858106 25.48465607 51.875 29.1875 C60.18699855 33.79797848 68.48115717 38.4375668 76.75 43.125 C84.74692377 47.65548543 92.75684908 52.16213975 100.78613281 56.63500977 C102.50534709 57.59314801 104.22339716 58.55337431 105.94140625 59.51367188 C108.0527896 60.68793762 110.17049658 61.85092461 112.29516602 63.00097656 C114.21677797 64.05712485 116.11551087 65.1564093 117.98413086 66.30371094 C122.35009473 68.98862668 122.35009473 68.98862668 127.27807617 69.31445312 C129.42962074 68.3576084 131.24696617 67.2088548 133.1875 65.875 C134.75490393 64.9049515 136.32402908 63.93768065 137.89453125 62.97265625 C138.7448291 62.43398926 139.59512695 61.89532227 140.47119141 61.34033203 C145.66134778 58.13649802 151.03178946 55.25109526 156.375 52.3125 C158.12240895 51.34145926 159.86981709 50.37041679 161.61680603 49.39862061 C169.53414284 44.99826733 177.50131289 40.69292579 185.47558594 36.39697266 C192.23979666 32.74206276 198.94388424 28.99190458 205.625 25.1875 C214.96729591 19.86873452 224.39854282 14.7327486 233.87890625 9.66455078 C239.57356003 6.61739643 245.2375635 3.52959219 250.85595703 0.34399414 C253.69489941 -1.25936379 256.55011373 -2.83043166 259.41748047 -4.38232422 C261.0671466 -5.27594832 262.70799087 -6.18581207 264.34765625 -7.09765625 C274.50588445 -12.11389273 287.65183512 -12.32438829 298.375 -8.75 C309.86341164 -3.66379918 317.57534836 3.63414025 323.20703125 14.83984375 C326.27558374 23.03414311 326.60135442 31.0181416 326.75244141 39.6730957 C326.79677055 41.59802605 326.79677055 41.59802605 326.84199524 43.56184387 C326.92248989 47.07281438 326.99170608 50.58392382 327.05857515 54.09517694 C327.13140414 57.83190299 327.2137791 61.568421 327.29476929 65.30497742 C327.43029174 71.62385552 327.55869403 77.94284726 327.68261719 84.26196289 C327.8076609 90.63549218 327.93914144 97.00883938 328.078125 103.38208008 C328.52215899 123.76796378 328.91714378 144.15397395 329.21900368 164.54249668 C329.24960539 166.59848821 329.28108806 168.65446488 329.31266785 170.71044159 C329.42462585 178.18022965 329.51269735 185.6495323 329.56074142 193.1200161 C329.57727487 195.32511633 329.60039271 197.53017906 329.63075638 199.73513222 C329.82220889 214.35803668 329.27181181 226.9996983 319.25 238.625 C313.46104061 244.47292102 307.01505283 248.23811884 299.75 252 C298.02215703 252.9123911 296.29432075 253.82479498 294.56674194 254.73768616 C292.72902537 255.70658366 290.88874781 256.67045994 289.04785156 257.63330078 C285.20783842 259.6437393 281.38006381 261.67672063 277.5546875 263.71484375 C276.24252115 264.41375225 274.93034661 265.11264536 273.61816406 265.81152344 C272.96174927 266.16114136 272.30533447 266.51075928 271.62902832 266.87097168 C268.24657158 268.67108891 264.86159461 270.46645035 261.4765625 272.26171875 C260.79847534 272.62137726 260.12038818 272.98103577 259.42175293 273.35159302 C258.0497723 274.07927998 256.67778337 274.80695128 255.30578613 275.53460693 C249.20303348 278.77151912 243.10121492 282.01019039 237 285.25 C236.33409851 285.60357574 235.66819702 285.95715149 234.9821167 286.32144165 C224.583896 291.84357412 214.20184606 297.39520071 203.82714844 302.96142578 C194.31004967 308.06458299 184.77476191 313.13296234 175.23516846 318.19390869 C164.17498406 324.06200799 153.13272542 329.96282689 142.10546875 335.89257812 C141.02652344 336.47201172 139.94757813 337.05144531 138.8359375 337.6484375 C137.42900635 338.40519775 137.42900635 338.40519775 135.99365234 339.17724609 C135.08824707 339.65500488 134.1828418 340.13276367 133.25 340.625 C132.24791504 341.2020166 131.24583008 341.7790332 130.21337891 342.37353516 C126.82351032 343.8051109 125.67444885 343.81239886 122.25 342.625 C120.34795177 341.77289203 118.47557565 340.85299387 116.62890625 339.88671875 C115.5399707 339.32001465 114.45103516 338.75331055 113.32910156 338.16943359 C112.16862305 337.55664551 111.00814453 336.94385742 109.8125 336.3125 C108.59490184 335.6749581 107.37712615 335.03775516 106.15917969 334.40087891 C97.82966909 330.03416732 89.5608142 325.55882782 81.32055664 321.02612305 C74.84232851 317.46920577 68.31177407 314.02505159 61.75 310.625 C54.24115581 306.73403048 46.78590479 302.76189354 39.375 298.6875 C31.55521138 294.38942913 23.67776187 290.22040141 15.75 286.125 C6.90938789 281.55802941 -1.85439591 276.8735054 -10.57324219 272.07861328 C-17.16938305 268.46087454 -23.82052415 264.9611124 -30.5 261.5 C-34.25268237 259.54676996 -38.00258513 257.5883166 -41.75 255.625 C-42.61270508 255.17350586 -43.47541016 254.72201172 -44.36425781 254.25683594 C-58.14223758 246.99655114 -69.07158317 240.4248157 -75.75 225.625 C-77.35515354 220.1194578 -78.03985804 215.13257539 -77.99145508 209.38720703 C-77.99229033 208.58126476 -77.99312557 207.77532249 -77.99398613 206.94495773 C-77.992789 204.21576118 -77.97549558 201.48694381 -77.95703125 198.7578125 C-77.94994291 196.75367283 -77.94301623 194.74953258 -77.93623352 192.74539185 C-77.80631745 165.06828203 -77.24597488 137.39285013 -76.68253982 109.72180247 C-76.66621037 108.91948168 -76.64988092 108.11716089 -76.63305664 107.29052734 C-76.61669666 106.48688413 -76.60033669 105.68324091 -76.58348095 104.85524487 C-76.4501241 98.24902672 -76.3308154 91.64260233 -76.21402425 85.03607357 C-76.09890076 78.56516659 -75.973134 72.09452019 -75.83936435 65.62397206 C-75.76056027 61.80138852 -75.68600451 57.97884718 -75.62277794 54.15597153 C-75.56354056 50.59119178 -75.49096426 47.02692087 -75.40852737 43.46260452 C-75.36770215 41.55707233 -75.34037344 39.65126544 -75.31364441 37.7454834 C-74.95557607 23.58127718 -71.82256245 11.93506757 -62.0625 1.375 C-43.41581447 -16.2377393 -20.36757585 -11.97280928 0 0 Z " fill="#00D2B9" transform="translate(283.75,262.375)"/>
<path d="M0 0 C4.25654634 3.94754116 7.39001765 8.21506525 10.5625 13.0625 C11.08134766 13.84979492 11.60019531 14.63708984 12.13476562 15.44824219 C45.1669984 65.9927383 80.58981712 131.7461086 79 194 C82.63 194.33 86.26 194.66 90 195 C92.20362117 200.47212072 93.68698059 205.62284558 94.625 211.4375 C94.74617187 212.13681641 94.86734375 212.83613281 94.9921875 213.55664062 C95.35455041 215.70127766 95.68532795 217.84786796 96 220 C96.09861328 220.669104 96.19722656 221.33820801 96.29882812 222.02758789 C100.49925563 254.47891227 95.69441323 289.59006067 84 320 C78.3079391 318.75486168 72.65003812 317.42447995 67 316 C66.55011719 316.93199219 66.10023438 317.86398437 65.63671875 318.82421875 C56.18505626 337.80524236 42.71438417 351.57886277 23 360 C22.24332031 360.32742188 21.48664063 360.65484375 20.70703125 360.9921875 C16.22795625 362.70549488 11.99583806 363.24667106 7.21484375 363.57421875 C6.04945068 363.65631592 4.88405762 363.73841309 3.68334961 363.82299805 C2.79784424 363.88140869 1.91233887 363.93981934 1 364 C1.66370136 359.88926685 2.32846301 355.77870632 2.99383545 351.66824341 C3.24832142 350.09542231 3.50259326 348.52256655 3.75665283 346.94967651 C5.57246602 335.71027362 7.41526653 324.47555847 9.28098679 313.24433327 C9.96988589 309.09415939 10.65623144 304.94356221 11.3426609 300.79297924 C12.02799145 296.65114522 12.71761751 292.51005359 13.41012192 288.36941338 C13.95172545 285.12321177 14.48704107 281.87597168 15.0234375 278.62890625 C15.32302368 276.84978851 15.32302368 276.84978851 15.62866211 275.034729 C15.80969482 273.93215759 15.99072754 272.82958618 16.17724609 271.69360352 C16.33679779 270.73486832 16.49634949 269.77613312 16.66073608 268.78834534 C17.25764163 263.88249263 17.45631652 260.07390483 15.03125 255.6953125 C14.42216797 254.57382812 14.42216797 254.57382812 13.80078125 253.4296875 C13.37152344 252.66914063 12.94226563 251.90859375 12.5 251.125 C12.07074219 250.34125 11.64148438 249.5575 11.19921875 248.75 C10.14382888 246.82684513 9.07522707 244.91209334 8 243 C5.9496253 253.39969732 4.52443725 263.89253022 3.03125 274.3828125 C2.7475588 276.36662516 2.46374302 278.35042 2.17980957 280.334198 C1.5867701 284.4810687 0.99523732 288.62815076 0.40478516 292.77539062 C-0.34539115 298.04364893 -1.09931351 303.31136286 -1.85439301 308.57892036 C-2.44106402 312.67467551 -3.02569902 316.77071941 -3.60975647 320.86684799 C-3.88658823 322.80664711 -4.16402485 324.74636003 -4.44212341 326.68597794 C-6.12617233 338.44087865 -7.67814665 350.19862016 -9 362 C-17.47481748 363.95119137 -25.58383527 360.14567339 -32.8125 355.75 C-37.80892221 352.34864552 -41.9996644 348.51681085 -46 344 C-46.845625 343.13375 -47.69125 342.2675 -48.5625 341.375 C-53.12411924 330.66511135 -47.42471816 313.13669897 -45.60546875 301.93359375 C-45.25772573 299.76267545 -44.91057224 297.59166265 -44.56396484 295.42056274 C-43.63693409 289.62268394 -42.70287637 283.82595984 -41.76702499 278.02949905 C-40.21001179 268.37885413 -38.66282917 258.72662435 -37.11559486 249.07440758 C-36.72543845 246.64089444 -36.33501482 244.20742413 -35.9443264 241.77399635 C-33.48410376 226.44440013 -31.07706496 211.10838275 -28.7668972 195.75543785 C-28.35062868 192.99099391 -27.93231018 190.22686837 -27.51325989 187.46284485 C-27.24554889 185.69601835 -26.9778635 183.92918798 -26.71020508 182.16235352 C-26.5813709 181.31205724 -26.45253672 180.46176096 -26.31979847 179.58569813 C-25.56883009 174.6185458 -24.83244449 169.64948618 -24.1061306 164.67867279 C-23.65945136 161.6446205 -23.19952595 158.61268796 -22.73587036 155.5811882 C-22.52718674 154.19706155 -22.32430553 152.81204511 -22.12780762 151.42613602 C-21.86228247 149.55670245 -21.57467583 147.69044452 -21.28588867 145.82446289 C-21.13286789 144.78818253 -20.97984711 143.75190216 -20.82218933 142.68421936 C-19.63715619 138.81541592 -17.54573033 136.92997289 -14.1277771 134.87359619 C-13.48539093 134.58047546 -12.84300476 134.28735474 -12.18115234 133.98535156 C-11.44714203 133.6453009 -10.71313171 133.30525024 -9.95687866 132.95489502 C-8.78326279 132.42808136 -8.78326279 132.42808136 -7.5859375 131.890625 C-6.77508698 131.51895203 -5.96423645 131.14727905 -5.1288147 130.76434326 C-3.42113195 129.98369652 -1.71147764 129.20734999 0 128.43505859 C2.62699667 127.2490986 5.24745045 126.04955509 7.8671875 124.84765625 C9.52828099 124.09034507 11.1897274 123.3338074 12.8515625 122.578125 C13.63802155 122.21881897 14.42448059 121.85951294 15.23477173 121.48931885 C20.76702524 119 20.76702524 119 23 119 C8.57053669 70.88814365 8.57053669 70.88814365 -15.234375 26.97265625 C-16 25 -16 25 -15.2355957 22.66479492 C-14.01408607 20.03037927 -12.6458797 17.77703496 -10.99609375 15.390625 C-10.42052734 14.55402344 -9.84496094 13.71742188 -9.25195312 12.85546875 C-8.65318359 11.99566406 -8.05441406 11.13585937 -7.4375 10.25 C-6.83486328 9.37472656 -6.23222656 8.49945313 -5.61132812 7.59765625 C-1.17569314 1.17569314 -1.17569314 1.17569314 0 0 Z " fill="#00D2B9" transform="translate(680,197)"/>
<path d="M0 0 C3.89699404 3.48107356 6.37538449 7.51806115 9.0625 11.9375 C9.49626953 12.64068359 9.93003906 13.34386719 10.37695312 14.06835938 C12.61094507 17.69647111 14.81628639 21.34138474 17 25 C16.46632813 25.86238281 15.93265625 26.72476563 15.3828125 27.61328125 C-2.07835537 56.0879279 -13.49320035 86.43660332 -24 118 C-22.72177368 118.39179443 -22.72177368 118.39179443 -21.41772461 118.79150391 C-17.85964058 120.04963063 -14.66360553 121.59474039 -11.31640625 123.3359375 C-10.69781235 123.65656158 -10.07921844 123.97718567 -9.44187927 124.30752563 C-8.14077249 124.98292105 -6.84074252 125.66039456 -5.54174805 126.33984375 C-3.57376967 127.36910591 -1.60265756 128.39214041 0.36914062 129.4140625 C3.92120079 131.26064692 7.47036221 133.11072478 11 135 C12.18658203 135.52768982 13.37316406 136.05537964 14.59570312 136.59906006 C17.77997532 138.44655823 17.96355131 138.89465587 19.26368713 142.65231323 C19.48489437 144.16862861 19.67115992 145.69027794 19.83032227 147.21435547 C19.9457456 148.06492649 20.06116894 148.91549751 20.18008995 149.79184341 C20.43183558 151.67752015 20.66876897 153.5652165 20.89311028 155.45434952 C21.26480054 158.5839155 21.67344013 161.70680159 22.09120178 164.83053589 C22.72332009 169.57204355 23.34088648 174.31518597 23.95196533 179.05944824 C25.06442393 187.59413154 26.28324211 196.1122981 27.51904297 204.62988281 C27.68539966 205.77715985 27.68539966 205.77715985 27.85511708 206.94761419 C28.31217761 210.09845117 28.76962166 213.24923201 29.22773945 216.39991546 C30.52495769 225.32462916 31.80251834 234.25214246 33.08007812 243.1796875 C33.5533516 246.48536807 34.02676706 249.79102828 34.50024414 253.09667969 C34.61804533 253.91921195 34.73584651 254.74174421 34.85721743 255.58920169 C35.8291598 262.37360109 36.80484754 269.15745877 37.78109735 275.94123948 C38.73532544 282.573675 39.6863548 289.20656444 40.63500029 295.83980072 C41.19618356 299.76315623 41.75875164 303.68630088 42.32484245 307.60895157 C42.85142682 311.25825908 43.37405142 314.9081117 43.89362335 318.558424 C44.1746186 320.52531121 44.45977847 322.49160205 44.74507141 324.45787048 C44.91165253 325.63363144 45.07823364 326.8093924 45.24986267 328.02078247 C45.39563216 329.03693697 45.54140165 330.05309147 45.6915884 331.10003853 C46.55094284 339.18045692 46.55094284 339.18045692 44.27734375 342.5625 C41.87341174 345.06676306 39.47255435 347.56322216 37 350 C36.40445313 350.59425781 35.80890625 351.18851563 35.1953125 351.80078125 C28.34189673 358.14592935 18.73327369 363.13671132 9.31640625 363.04296875 C8.5076001 363.03676514 7.69879395 363.03056152 6.86547852 363.02416992 C6.24987061 363.01619385 5.6342627 363.00821777 5 363 C2.82491041 346.29690831 0.68983839 329.58916658 -1.40301132 312.87557602 C-1.76281754 310.00294622 -2.12315426 307.13038346 -2.4836731 304.25784302 C-2.60375292 303.30100679 -2.72383274 302.34417057 -2.84755135 301.35833931 C-3.09135039 299.41571495 -3.33515916 297.47309182 -3.57897758 295.53046989 C-4.20257814 290.55999758 -4.82478251 285.58935626 -5.44458008 280.6184082 C-6.05550963 275.71936926 -6.66997198 270.82078511 -7.28687477 265.92249489 C-7.51903505 264.07382347 -7.74988113 262.2249865 -7.97937584 260.37598228 C-8.29627688 257.82403036 -8.6176782 255.2726841 -8.94018555 252.72143555 C-9.07965355 251.58500359 -9.07965355 251.58500359 -9.22193909 250.4256134 C-9.67429171 246.5915711 -9.67429171 246.5915711 -11 243 C-12.56781136 245.35324511 -14.07359845 247.72240404 -15.5625 250.125 C-16.00013672 250.77082031 -16.43777344 251.41664063 -16.88867188 252.08203125 C-23.48203704 262.98444609 -18.14466194 279.7123804 -16.3125 291.734375 C-16.04674585 293.50636907 -15.7815384 295.27844521 -15.5168457 297.05059814 C-14.82472441 301.67673641 -14.12668294 306.30195917 -13.42687988 310.92694092 C-12.3058987 318.34025839 -11.19276167 325.75475129 -10.0821228 333.16962433 C-9.69620562 335.73891627 -9.30693098 338.30768247 -8.91723633 340.87640381 C-7.75659724 348.57093546 -6.6668025 356.24351796 -6 364 C-22.75535877 363.07997467 -36.5166375 355.93601104 -49 345 C-50.01513672 344.12794922 -50.01513672 344.12794922 -51.05078125 343.23828125 C-59.83703273 335.12112307 -66.71163462 324.11076484 -71 313 C-79.415 314.98 -79.415 314.98 -88 317 C-100.75832095 277.40667732 -106.42754884 232.28264652 -93 192 C-90.11788698 191.03929566 -88.30149956 190.89418117 -85.3125 190.9375 C-84.50425781 190.94652344 -83.69601563 190.95554687 -82.86328125 190.96484375 C-81.94095703 190.98224609 -81.94095703 190.98224609 -81 191 C-80.98582031 190.21882812 -80.97164062 189.43765625 -80.95703125 188.6328125 C-80.07479778 167.22076765 -74.5148714 146.31338332 -68 126 C-67.72961914 125.14776855 -67.45923828 124.29553711 -67.18066406 123.41748047 C-62.49742157 108.83752053 -56.42795301 94.88676092 -50 81 C-49.39913574 79.7011084 -49.39913574 79.7011084 -48.78613281 78.37597656 C-36.58115518 52.32284481 -20.52045993 20.52045993 0 0 Z " fill="#00D2B9" transform="translate(143,185)"/>
<path d="M0 0 C3.66355608 0.00314531 7.32628989 -0.02033993 10.98974609 -0.0456543 C82.1956876 -0.23733378 150.58883377 23.53823703 206.69677734 67.31567383 C207.50888672 67.94602539 208.32099609 68.57637695 209.15771484 69.22583008 C221.64362062 79.06504709 233.43347581 89.64899636 244.92138672 100.62817383 C246.51553133 102.14340039 248.12559404 103.63860199 249.74365234 105.12817383 C250.57380859 105.91192383 251.40396484 106.69567383 252.25927734 107.50317383 C252.96181641 108.15672852 253.66435547 108.8102832 254.38818359 109.48364258 C255.69677734 111.31567383 255.69677734 111.31567383 255.70458984 113.16723633 C254.24027011 116.28884816 252.17024725 118.84496958 250.00927734 121.50317383 C249.53103516 122.10178223 249.05279297 122.70039063 248.56005859 123.31713867 C243.8926572 129.1350188 239.14354613 134.88830145 234.3815918 140.62890625 C233.81529053 141.31186768 233.24898926 141.9948291 232.66552734 142.69848633 C232.16472656 143.30063965 231.66392578 143.90279297 231.14794922 144.52319336 C229.6135137 146.41852068 228.1484977 148.35649848 226.69677734 150.31567383 C222.06839981 149.44777522 219.58265674 146.63860888 216.32177734 143.44067383 C209.45828867 136.89673118 202.26880192 131.01437869 194.69677734 125.31567383 C194.1028418 124.86482422 193.50890625 124.41397461 192.89697266 123.94946289 C148.54806592 90.37202625 97.90812107 68.16790832 42.69677734 60.31567383 C41.89353027 60.19853027 41.0902832 60.08138672 40.26269531 59.96069336 C17.45265087 56.77249815 -6.51389777 57.17960735 -29.30322266 60.31567383 C-30.22022949 60.4392627 -31.13723633 60.56285156 -32.08203125 60.69018555 C-92.7957598 69.15542571 -154.1408522 96.85305699 -198.45556641 139.83911133 C-200.30322266 141.31567383 -200.30322266 141.31567383 -203.30322266 141.31567383 C-205.22743206 139.04632845 -206.9563172 136.79499112 -208.67822266 134.37817383 C-209.74749355 132.91256958 -210.81784442 131.44775277 -211.88916016 129.98364258 C-212.44571289 129.21842285 -213.00226563 128.45320312 -213.57568359 127.66479492 C-216.95044735 123.07576483 -220.452696 118.58331024 -223.9375 114.07763672 C-226.8845569 110.245351 -229.67403804 106.37321354 -232.30322266 102.31567383 C-214.09429772 83.71567665 -214.09429772 83.71567665 -206.07666016 77.47973633 C-204.01044217 75.86750427 -202.01627034 74.23176355 -200.02978516 72.52661133 C-182.54854313 57.66048772 -162.75369134 44.70785077 -142.30322266 34.31567383 C-140.94874023 33.61716309 -140.94874023 33.61716309 -139.56689453 32.90454102 C-112.33689616 18.96343407 -84.01094829 9.71949189 -53.99072266 4.06567383 C-53.1929541 3.91437012 -52.39518555 3.76306641 -51.57324219 3.60717773 C-34.41461454 0.57555756 -17.39165565 -0.03106886 0 0 Z " fill="#009685" transform="translate(397.30322265625,56.684326171875)"/>
<path d="M0 0 C0.6202002 0.29396667 1.24040039 0.58793335 1.87939453 0.89080811 C2.5490625 1.20064636 3.21873047 1.51048462 3.90869141 1.82971191 C5.35749394 2.50076548 6.80481577 3.1750233 8.25079346 3.85214233 C12.19034503 5.69646748 16.14099481 7.51677558 20.09033203 9.34002686 C20.90676178 9.71766678 21.72319153 10.0953067 22.56436157 10.48439026 C30.11776275 13.9716464 37.71903416 17.34533397 45.3319397 20.70019531 C60.12804063 27.22236513 74.82143122 33.94824211 89.48059082 40.7722168 C101.34909875 46.2965451 113.2443429 51.74373333 125.20385742 57.06854248 C133.99599148 60.98694526 142.75086888 64.98197435 151.4987793 68.9979248 C157.30094077 71.65893217 163.10977207 74.30533281 168.91894531 76.95098877 C170.81691117 77.81647148 172.71352767 78.6848464 174.60986328 79.55389404 C177.82636812 81.02281315 181.05025345 82.47376441 184.27783203 83.91815186 C185.19806152 84.34185059 186.11829102 84.76554932 187.06640625 85.2020874 C187.90703613 85.57374023 188.74766602 85.94539307 189.61376953 86.32830811 C190.32839355 86.6506543 191.04301758 86.97300049 191.77929688 87.30511475 C196.96304731 88.64902797 201.61624178 85.77450155 206.21923828 83.60174561 C206.93539307 83.26939407 207.65154785 82.93704254 208.3894043 82.59461975 C209.93862489 81.87529876 211.48677629 81.15367145 213.03396606 80.42999268 C217.20344722 78.48045631 221.38127681 76.54898936 225.55908203 74.61737061 C226.41852921 74.21966461 227.27797638 73.82195862 228.16346741 73.41220093 C236.8895706 69.3831026 245.67257297 65.48655525 254.46533203 61.60565186 C266.12878868 56.45281734 277.7251886 51.1855899 289.27294922 45.77728271 C298.53545964 41.45455763 307.86552453 37.29778133 317.21533203 33.16815186 C332.9764147 26.20608729 348.6366528 19.03737072 364.26542664 11.78355408 C365.77412427 11.08446896 367.28379104 10.38747079 368.79450989 9.69276428 C371.98398167 8.22443187 375.14641106 6.73338763 378.28515625 5.15789795 C379.2508252 4.68046143 380.21649414 4.2030249 381.21142578 3.71112061 C382.01249756 3.2988623 382.81356934 2.886604 383.63891602 2.46185303 C387.30082692 1.48131547 389.62347559 3.11938214 392.77026367 4.93035889 C393.65766235 5.51599609 393.65766235 5.51599609 394.56298828 6.11346436 C395.6097876 6.79312256 395.6097876 6.79312256 396.67773438 7.48651123 C397.4326416 7.97957764 398.18754883 8.47264404 398.96533203 8.98065186 C408.58687558 15.17961135 418.48574274 20.83477297 428.46948242 26.42254639 C429.05702805 26.75348297 429.64457367 27.08441956 430.24992371 27.42538452 C431.85339379 28.32827047 433.45980159 29.22593358 435.06640625 30.12322998 C437.88175614 31.8427792 440.37649893 33.73907271 442.90283203 35.85565186 C435.86702119 38.73983284 428.76973038 41.37209646 421.59033203 43.87518311 C420.52086838 44.25018951 419.45140472 44.62519592 418.34953308 45.01156616 C416.05913154 45.81456601 413.76840698 46.616645 411.47738647 47.4178772 C405.36357966 49.55630811 399.25233169 51.70202455 393.14111328 53.84783936 C391.91548172 54.27807907 390.68985016 54.70831879 389.42707825 55.15159607 C378.96736221 58.82632863 368.52586856 62.55042425 358.09033203 66.29315186 C340.45959025 72.6129241 322.79079153 78.82185482 305.11480713 85.01382446 C289.22730473 90.57947539 273.34639752 96.16283264 257.47982788 101.78790283 C254.50346242 102.84214589 251.52615554 103.89368786 248.54858398 104.94451904 C240.4025369 107.82205605 232.26186832 110.70892898 224.15711975 113.70117188 C220.99446699 114.86786024 217.8272697 116.02189937 214.65963745 117.17498779 C212.54662705 117.95080347 210.44185866 118.74641371 208.33666992 119.54315186 C207.06876203 120.0051958 205.80047471 120.4662004 204.53173828 120.92596436 C203.45996338 121.32573486 202.38818848 121.72550537 201.28393555 122.13739014 C193.45545779 123.80042585 186.42966188 121.28995391 179.10595703 118.60174561 C177.71129967 118.10342224 177.71129967 118.10342224 176.28846741 117.59503174 C173.23991975 116.50345454 170.19648385 115.39829845 167.15283203 114.29315186 C165.0010869 113.52011043 162.84898112 112.74807219 160.6965332 111.97698975 C156.26348947 110.38769464 151.8322438 108.79353162 147.40234375 107.19549561 C138.60566042 104.02470984 129.79273199 100.89995087 120.97994995 97.77426147 C116.32040642 96.12067928 111.66246293 94.46260263 107.00439453 92.80487061 C99.68737363 90.20137089 92.36964142 87.59988268 85.05126953 85.00018311 C69.13312226 79.34493214 53.21663444 73.68518248 37.30908203 68.00018311 C36.14619659 67.58459641 34.98331116 67.1690097 33.78518677 66.74082947 C29.03621117 65.0435303 24.28727838 63.34611165 19.53851318 61.64822388 C6.74215017 57.07340118 -6.05769967 52.5089636 -18.87060547 47.98065186 C-19.96968735 47.59211533 -21.06876923 47.2035788 -22.20115662 46.80326843 C-27.37817229 44.9736506 -32.55599589 43.14636931 -37.73510742 41.32269287 C-47.24504446 37.96858654 -56.71781113 34.56300691 -66.09716797 30.85565186 C-63.08162205 27.57275106 -59.98966885 25.42812236 -56.13623047 23.20330811 C-55.26785805 22.69789238 -55.26785805 22.69789238 -54.38194275 22.18226624 C-52.49888069 21.08799922 -50.6108713 20.0026487 -48.72216797 18.91815186 C-46.0973569 17.40314699 -43.47416462 15.88535217 -40.85107422 14.36737061 C-40.19495651 13.9885675 -39.53883881 13.6097644 -38.86283875 13.21948242 C-34.70248209 10.8105103 -30.58985972 8.33876041 -26.49951172 5.81268311 C-25.50677246 5.20480957 -24.5140332 4.59693604 -23.49121094 3.97064209 C-21.6449035 2.83608155 -19.80621786 1.68899449 -17.9765625 0.527771 C-17.15140137 0.02495605 -16.32624023 -0.47785889 -15.47607422 -0.99591064 C-14.41755249 -1.6584082 -14.41755249 -1.6584082 -13.33764648 -2.33428955 C-8.61941104 -4.04019619 -4.35626566 -2.00326485 0 0 Z " fill="#009685" transform="translate(214.09716796875,546.1443481445313)"/>
<path d="M0 0 C14.96980756 15.79383367 20.72992535 36.41845355 20.54101562 57.66650391 C19.94840388 78.47140913 12.56804849 99.21366687 -2.8125 113.75 C-22.87920536 131.01262426 -45.96292232 136.16829541 -71.8125 134.75 C-93.73589051 132.53336224 -112.73075372 122.50204646 -126.8125 105.75 C-140.26470649 88.09397899 -145.10067856 65.20582282 -142.31640625 43.38671875 C-139.2636142 22.97347072 -130.17502518 5.14422773 -113.5 -7.5 C-79.36689708 -30.89883056 -30.4698164 -28.48037822 0 0 Z M-92.8125 24.75 C-102.3280804 36.80638983 -104.32660233 49.79417803 -102.8125 64.75 C-100.7032301 76.25618582 -95.0654366 86.44600871 -85.8125 93.75 C-74.80884914 100.44092964 -63.16880939 102.6647796 -50.453125 100.0625 C-39.1648528 96.62444755 -30.17623763 89.33958924 -24.26953125 79.06640625 C-18.8184766 67.28509458 -17.09471691 53.27862675 -20.8125 40.75 C-25.9373569 27.59244099 -33.26712698 18.60394804 -46.22265625 12.640625 C-62.98821462 6.70690484 -81.27947214 11.3467514 -92.8125 24.75 Z " fill="#009685" transform="translate(2180.8125,410.25)"/>
<path d="M0 0 C0.8146875 0.41765625 1.629375 0.8353125 2.46875 1.265625 C19.25287541 10.50751684 30.64377353 25.72581557 36 44 C41.84267282 66.85029127 39.93138023 90.38105266 28.25 111.1875 C16.12277417 130.32432439 -1.71779772 141.42944943 -23.28125 146.8203125 C-46.22077781 151.0180096 -70.71368466 147.83224745 -90.4375 135.0625 C-92.30972901 133.73341764 -94.1657932 132.38108175 -96 131 C-97.09054687 130.18595703 -97.09054687 130.18595703 -98.203125 129.35546875 C-113.76084327 116.76841716 -121.67468039 97.41845854 -124 78 C-125.41961178 54.47500471 -120.31780652 33.04907335 -104.75 14.8125 C-79.07445253 -12.60081718 -32.65006643 -17.56490916 0 0 Z M-68 32 C-69.03125 32.721875 -70.0625 33.44375 -71.125 34.1875 C-79.10120723 41.14500685 -83.56533305 53.04591544 -84.875 63.3125 C-85.64279422 76.78728855 -82.61648773 90.00755361 -73.75 100.375 C-64.69761619 109.69671093 -55.64094934 114.02577099 -42.625 114.4375 C-29.20154076 114.12595655 -19.98902736 109.32494345 -10.8125 99.875 C-0.68688871 88.13487195 0.08834846 73.74163542 -1 59 C-3.04342676 48.03555582 -9.22302478 37.92828162 -18 31 C-34.01490899 21.26190211 -52.68275441 20.95964766 -68 32 Z " fill="#009685" transform="translate(1528,397)"/>
<path d="M0 0 C95.67676768 0 95.67676768 0 118 20 C118.67289063 20.59296875 119.34578125 21.1859375 120.0390625 21.796875 C133.94571613 34.81808626 139.20680394 53.08800634 140.12890625 71.5859375 C140.60323016 93.15186482 134.1512355 111.96793843 119.3671875 127.72265625 C88.06806286 157.83386032 38.49696914 150 0 150 C0 100.5 0 51 0 0 Z M36 32 C36 60.38 36 88.76 36 118 C61.48610882 118.82496482 61.48610882 118.82496482 85 110 C85.66128906 109.56558594 86.32257813 109.13117188 87.00390625 108.68359375 C93.99429313 103.39106175 98.29709639 94.98986443 100.671875 86.63671875 C102.31874148 73.40297026 102.06951166 59.88803542 94.1875 48.625 C93.15666987 47.38953858 92.09456084 46.17936943 91 45 C90.49855469 44.45730469 89.99710938 43.91460937 89.48046875 43.35546875 C75.4257394 29.84788215 53.69936053 32 36 32 Z " fill="#009685" transform="translate(1182,391)"/>
<path d="M0 0 C88.2635989 0 88.2635989 0 102.17578125 12.83984375 C109.933469 22.02614209 111.78469493 32.3603585 111 44 C109.28402289 54.1358987 104.15469411 60.86068174 95.9296875 66.7734375 C94.00641074 67.99592516 92.0568664 69.02184576 90 70 C90.92941406 70.42410156 91.85882812 70.84820312 92.81640625 71.28515625 C104.89370721 76.94853258 111.31917582 82.61389835 116.25 95.1875 C118.71838787 107.73513832 116.80615383 119.87729874 109.84765625 130.6484375 C99.94587298 143.25070712 86.19760749 145.9604785 71 149 C47.57 149 24.14 149 0 149 C0 99.83 0 50.66 0 0 Z M36 29 C36 38.9 36 48.8 36 59 C41.1975 59.061875 41.1975 59.061875 46.5 59.125 C47.57572266 59.14320801 48.65144531 59.16141602 49.75976562 59.18017578 C58.17480703 59.22830609 65.23049553 58.51006178 72 53 C75.16127331 49.31184781 75.52774774 45.92071277 75.34765625 41.21484375 C74.78975404 37.66056786 73.38894889 35.6404172 71 33 C63.56844549 28.31488955 55.60125483 28.87017139 47.125 28.9375 C43.45375 28.958125 39.7825 28.97875 36 29 Z M36 86 C36 96.89 36 107.78 36 119 C40.228125 119.0825 44.45625 119.165 48.8125 119.25 C50.7766687 119.30462402 50.7766687 119.30462402 52.78051758 119.36035156 C60.7859764 119.43517457 69.35910417 118.94388533 75.74584961 113.51635742 C79.37081038 109.36648642 80.36162308 105.58422885 80.28125 100.12890625 C79.6730964 95.52552133 77.38696985 92.14920359 73.8125 89.1875 C65.50037181 85.67793476 57.30967707 85.74834268 48.4375 85.875 C42.2809375 85.936875 42.2809375 85.936875 36 86 Z " fill="#009685" transform="translate(1432,193)"/>
<path d="M0 0 C86.27884615 0 86.27884615 0 101.625 14.25 C109.06350503 21.90244433 110.30486901 30.1217908 110.31469727 40.42944336 C110.14705006 49.74725512 107.3372499 56.41811242 100.94140625 63.2421875 C97.34737341 66.49634198 93.31790377 68.84104811 89 71 C89.61746094 71.20753906 90.23492188 71.41507812 90.87109375 71.62890625 C101.10538711 75.35188359 109.07810242 81.05938062 114 91 C117.65801937 101.40838501 117.69762835 114.51210066 113.26171875 124.67578125 C106.84537102 136.49536917 97.77494908 142.83365225 85.09375 146.94140625 C57.6081875 154.75666921 27.95736064 150 0 150 C0 100.5 0 51 0 0 Z M35 30 C35 39.9 35 49.8 35 60 C38.444375 60.04125 41.88875 60.0825 45.4375 60.125 C47.03742798 60.15231201 47.03742798 60.15231201 48.66967773 60.18017578 C57.39496391 60.23022368 65.09706871 59.88827871 71.62109375 53.63671875 C74.61916733 50.07809884 75.01870284 47.04735889 74.9375 42.5 C73.83229259 38.37389235 72.33338259 35.62976356 69 33 C61.96318697 29.41535232 54.64674883 29.64037095 46.9375 29.8125 C41.0284375 29.9053125 41.0284375 29.9053125 35 30 Z M35 87 C35 97.89 35 108.78 35 120 C39.228125 120.0825 43.45625 120.165 47.8125 120.25 C49.7766687 120.30462402 49.7766687 120.30462402 51.78051758 120.36035156 C60.40806684 120.44098894 69.53281176 119.64925748 76.125 113.4375 C79.88136687 108.55422307 79.73726771 102.92356474 79 97 C77.21180981 92.99862374 74.35550067 91.18409856 70.5 89.1875 C65.39320504 87.45483742 60.99804997 86.87678649 55.60546875 86.90234375 C54.52160889 86.90484131 53.43774902 86.90733887 52.32104492 86.90991211 C50.9569751 86.91901611 49.59290527 86.92812012 48.1875 86.9375 C43.835625 86.958125 39.48375 86.97875 35 87 Z " fill="#009685" transform="translate(1767,391)"/>
<path d="M0 0 C87.14928425 0 87.14928425 0 104.3125 15.6875 C112.18812978 24.0722614 114.92322542 34.98665371 115.03125 46.26171875 C114.43593375 58.83777453 110.52270896 69.1341596 101.12109375 77.71484375 C97.55970143 80.54237341 93.81488774 82.66885977 89.73828125 84.671875 C88.84794189 85.11112305 87.95760254 85.55037109 87.0402832 86.00292969 C86.36698975 86.33196289 85.69369629 86.66099609 85 87 C85.45717407 87.73428223 85.45717407 87.73428223 85.92358398 88.48339844 C93.66557886 100.92890173 101.31892362 113.42589977 108.90991211 125.96386719 C109.92323608 127.63690918 109.92323608 127.63690918 110.95703125 129.34375 C111.61654785 130.43300781 112.27606445 131.52226563 112.95556641 132.64453125 C114.39191592 135.00196947 115.83524288 137.35355676 117.29052734 139.69921875 C117.66247726 140.29947876 118.03442719 140.89973877 118.41764832 141.51818848 C119.45575967 143.19107363 120.49672018 144.86218975 121.5378418 146.53320312 C123 149 123 149 123 150 C108.48 150 93.96 150 79 150 C75.4421875 143.2865625 75.4421875 143.2865625 71.8125 136.4375 C66.04684611 125.58139548 60.16958532 114.81191652 53.98754883 104.18530273 C51.50043124 99.86811025 49.32291898 95.84539 48 91 C44.04 91 40.08 91 36 91 C36 110.47 36 129.94 36 150 C24.12 150 12.24 150 0 150 C0 100.5 0 51 0 0 Z M36 30 C36 41.22 36 52.44 36 64 C41.630625 64.0928125 41.630625 64.0928125 47.375 64.1875 C48.53692871 64.21481201 49.69885742 64.24212402 50.89599609 64.27026367 C58.88330813 64.3332893 66.04382488 63.44104422 72.9375 59.1875 C76.59081198 55.31277517 78.17068804 51.79177048 78.4375 46.5 C78.26335262 41.99488292 77.02845049 39.42693082 74 36 C64.11592977 27.32130419 48.13498694 29.84541418 36 30 Z " fill="#009685" transform="translate(1906,391)"/>
<path d="M0 0 C11.88 0 23.76 0 36 0 C36.01458252 2.78469727 36.02916504 5.56939453 36.04418945 8.43847656 C36.09469369 17.67459008 36.16131621 26.91053781 36.23571491 36.14648819 C36.2803012 41.74217518 36.31958291 47.33779133 36.34643555 52.93359375 C36.37258599 58.34133239 36.41307052 63.74879668 36.46318626 69.15636444 C36.47977591 71.21181557 36.49133909 73.26731407 36.49761391 75.32282257 C36.00239341 94.84333129 36.00239341 94.84333129 44 112 C49.96245004 117.88009576 55.68349564 119.46782073 63.86328125 120.03125 C70.95312578 119.96061643 77.60811431 117.63952955 83 113 C89.03603699 105.29942913 90.29574749 97.73941983 90.31884766 88.20922852 C90.32889328 87.25235641 90.3389389 86.29548431 90.34928894 85.30961609 C90.38002911 82.16605191 90.39713063 79.02257255 90.4140625 75.87890625 C90.43278151 73.69171931 90.45235547 71.50453953 90.4727478 69.31736755 C90.52399745 63.57504508 90.5636616 57.8326992 90.60089111 52.090271 C90.64097566 46.22483568 90.69204771 40.35949708 90.7421875 34.49414062 C90.83886202 22.99615506 90.92227792 11.49812932 91 0 C103.21 0 115.42 0 128 0 C128.06797182 13.20500686 128.12292901 26.40989614 128.15543652 39.61503887 C128.17104413 45.74773891 128.19219241 51.88031229 128.22631836 58.01293945 C128.25908716 63.93925522 128.27688983 69.86544971 128.28463173 75.79184914 C128.29014391 78.04469522 128.30090725 80.29753522 128.31719017 82.55032921 C128.45882972 102.97219132 127.11625914 120.32075877 112.2109375 135.8203125 C111.48132812 136.53960938 110.75171875 137.25890625 110 138 C109.15308594 138.86238281 109.15308594 138.86238281 108.2890625 139.7421875 C95.00691768 152.24684091 76.31389523 154.46904152 58.91796875 154.203125 C42.49725831 153.68253801 26.9290063 147.97317818 15.109375 136.33203125 C6.22617226 126.51115712 -0.13644421 113.93091794 -0.12025452 100.41252136 C-0.12162918 99.52216187 -0.12300385 98.63180237 -0.12442017 97.71446228 C-0.11902725 96.26868553 -0.11902725 96.26868553 -0.11352539 94.79370117 C-0.11367142 93.76884613 -0.11381744 92.74399109 -0.1139679 91.68807983 C-0.11327218 88.30635448 -0.1054957 84.92468446 -0.09765625 81.54296875 C-0.09579086 79.19598928 -0.09436753 76.84900942 -0.09336853 74.50202942 C-0.08955289 68.32889732 -0.07973071 62.1557888 -0.06866455 55.98266602 C-0.05842996 49.68180663 -0.05386652 43.38094343 -0.04882812 37.08007812 C-0.03810761 24.72004006 -0.02051849 12.36002568 0 0 Z " fill="#009685" transform="translate(1026,391)"/>
<path d="M0 0 C11.88 0 23.76 0 36 0 C45.18730731 21.47874197 54.27900143 42.98949346 63.11279297 64.61621094 C63.77305239 66.23244622 64.43337119 67.84865725 65.09375 69.46484375 C65.41803986 70.25851349 65.74232971 71.05218323 66.07644653 71.86990356 C69.5526197 80.36746879 73.08629943 88.84082754 76.625 97.3125 C81.43376654 108.83066279 86.2296331 120.35398674 90.99017334 131.8921814 C91.61816992 133.41378139 92.24678434 134.93512655 92.8760376 136.45620728 C93.74072574 138.54690983 94.60313203 140.638538 95.46484375 142.73046875 C95.955896 143.92051514 96.44694824 145.11056152 96.95288086 146.33666992 C98 149 98 149 98 150 C84.47 150 70.94 150 57 150 C52.4588303 140.9176606 48.77123617 131.42809042 45 122 C26.19 121.67 7.38 121.34 -12 121 C-12.33 122.98 -12.66 124.96 -13 127 C-13.63630059 128.89088234 -14.32725019 130.76409204 -15.06640625 132.6171875 C-15.61083374 133.99559814 -15.61083374 133.99559814 -16.16625977 135.40185547 C-16.62701904 136.54799316 -17.08777832 137.69413086 -17.5625 138.875 C-19.026875 142.54625 -20.49125 146.2175 -22 150 C-35.2 150 -48.4 150 -62 150 C-61.32097572 146.60487861 -60.80991865 144.22107369 -59.51977539 141.16748047 C-59.2168457 140.44401428 -58.91391602 139.7205481 -58.60180664 138.97515869 C-58.27043701 138.1970282 -57.93906738 137.41889771 -57.59765625 136.6171875 C-57.24880371 135.78749451 -56.89995117 134.95780151 -56.54052734 134.10296631 C-55.38547486 131.35848101 -54.22395232 128.61678231 -53.0625 125.875 C-52.24552645 123.93689096 -51.4290469 121.99857361 -50.61303711 120.06005859 C-48.91707157 116.03208616 -47.21897686 112.00502092 -45.51953125 107.97851562 C-43.15850372 102.38078489 -40.81062252 96.77764282 -38.46875 91.171875 C-38.10387985 90.29852005 -37.7390097 89.4251651 -37.36308289 88.52534485 C-36.62926919 86.76874766 -35.89547903 85.01214064 -35.16171265 83.25552368 C-28.390873 67.05224027 -21.58043168 50.86574363 -14.75 34.6875 C-14.35144806 33.74328186 -13.95289612 32.79906372 -13.54226685 31.82623291 C-12.39848446 29.11701035 -11.25407019 26.40805575 -10.109375 23.69921875 C-9.78192795 22.92377213 -9.4544809 22.1483255 -9.11711121 21.34938049 C-6.10316711 14.22189837 -3.04848888 7.11314072 0 0 Z M17 43 C12.74742501 53.77225121 8.61761863 64.58937049 4.5625 75.4375 C4.11342285 76.62835205 3.6643457 77.8192041 3.20166016 79.04614258 C2.78577637 80.16400146 2.36989258 81.28186035 1.94140625 82.43359375 C1.56701416 83.43447021 1.19262207 84.43534668 0.80688477 85.46655273 C-0.15173637 88.03328044 -0.15173637 88.03328044 0 91 C11.55 91 23.1 91 35 91 C29.41405012 74.97075252 23.72341207 58.98052847 18 43 C17.67 43 17.34 43 17 43 Z " fill="#009685" transform="translate(922,391)"/>
<path d="M0 0 C11.88 0 23.76 0 36 0 C36.029729 3.99528809 36.029729 3.99528809 36.06005859 8.07128906 C36.12720554 16.90823569 36.20484048 25.74506829 36.28752708 34.58188248 C36.33730271 39.93542175 36.38363328 45.28894306 36.421875 50.64257812 C36.45896583 55.81684742 36.50538788 60.9909592 36.55806351 66.16509247 C36.57648181 68.1312354 36.5916352 70.09741193 36.60334396 72.06360626 C36.00202246 93.15239846 36.00202246 93.15239846 44.46484375 111.71484375 C49.83807105 116.88578484 56.62276277 119.01731577 64 119.375 C71.38638145 119.01687241 78.11476413 116.86876081 83.53125 111.74609375 C87.87287636 106.58463901 90.09799526 100.50909928 90.15821838 93.79852295 C90.1680072 92.96843719 90.17779602 92.13835144 90.18788147 91.28311157 C90.19363693 90.3811203 90.1993924 89.47912903 90.20532227 88.54980469 C90.21522186 87.59337067 90.22512146 86.63693665 90.23532104 85.65151978 C90.2668965 82.49166332 90.29167792 79.33179184 90.31640625 76.171875 C90.33697918 73.98040375 90.35797575 71.78893644 90.37937927 69.59747314 C90.43456485 63.8304361 90.48398967 58.06336345 90.53222656 52.29626465 C90.5824672 46.41101921 90.6381399 40.52582546 90.69335938 34.640625 C90.800898 23.09379252 90.90185058 11.54691611 91 0 C103.21 0 115.42 0 128 0 C128.09070325 13.17046077 128.16394732 26.34071092 128.20724869 39.51141453 C128.22804085 45.62841547 128.25620447 51.74518991 128.30175781 57.86206055 C128.34551539 63.7754276 128.36919991 69.68857807 128.37950897 75.60209465 C128.38684696 77.84772077 128.40117486 80.09333628 128.42292023 82.33886909 C128.61121988 102.60677289 126.78290191 120.45752828 112.1875 135.9375 C97.31919788 149.95618486 78.08492296 153.8979202 58.26171875 153.34375 C40.71323425 152.44792946 25.10087257 146.06718544 13 133 C10.73366256 130.12669529 8.81365958 127.17533459 7 124 C6.62230469 123.37738281 6.24460937 122.75476563 5.85546875 122.11328125 C-1.52602184 108.9261239 -0.39832941 93.77620024 -0.29296875 79.19921875 C-0.28736395 76.90851623 -0.28309803 74.61781008 -0.28010559 72.32710266 C-0.26872646 66.33812288 -0.23931976 60.34936613 -0.20599365 54.36047363 C-0.17514237 48.23318497 -0.16156825 42.1058598 -0.14648438 35.97851562 C-0.11444272 23.98556401 -0.06173225 11.99283557 0 0 Z " fill="#009685" transform="translate(1276,193)"/>
<path d="M0 0 C11.55 0 23.1 0 35 0 C35 52.47 35 104.94 35 159 C24.11 159 13.22 159 2 159 C1.67 155.7 1.34 152.4 1 149 C0.05125 149.886875 -0.8975 150.77375 -1.875 151.6875 C-12.42097735 160.69951701 -24.5001339 162.95069262 -37.98681641 162.1953125 C-49.23157162 161.10438306 -60.59230545 155.51759199 -68.27734375 147.21484375 C-79.75096233 132.46304843 -83.86399732 115.49313752 -82 97 C-79.8971727 81.7311949 -73.17122566 68.71623412 -61 59 C-48.25076233 51.16182072 -34.31989053 48.68874625 -19.6328125 51.6875 C-12.74760786 54.02807948 -6.15894686 57.84105314 -1 63 C-0.67 42.21 -0.34 21.42 0 0 Z M-41.3125 87.125 C-46.61606994 93.57472454 -48.65492065 100.04993845 -48.34375 108.38671875 C-47.32854905 116.10455321 -44.63145919 122.20240835 -38.9765625 127.5625 C-31.92845605 132.6883956 -25.46455918 132.85226683 -17 132 C-10.7538316 130.34486389 -6.45446254 126.35543897 -3 121 C0.88393516 113.7146061 2.40767471 107.20696004 0.234375 99.16796875 C-2.7829002 90.22390298 -6.69916396 85.43165784 -15 81 C-24.76052033 77.74649322 -34.28702544 79.80573287 -41.3125 87.125 Z " fill="#00D2B9" transform="translate(1699,183)"/>
<path d="M0 0 C2.95116528 2.41475793 5.69188019 5.01012633 8.33544922 7.75537109 C6.75071342 11.61865737 4.27588035 14.04414032 1.32763672 16.95849609 C0.84215363 17.44114929 0.35667053 17.92380249 -0.14352417 18.42108154 C-1.68754944 19.95395671 -3.23839902 21.47971113 -4.78955078 23.00537109 C-5.84079087 24.0465747 -6.89157735 25.0882365 -7.94189453 26.13037109 C-10.51088082 28.67736574 -13.08603239 31.21802286 -15.66455078 33.75537109 C-16.11258057 33.35415039 -16.56061035 32.95292969 -17.0222168 32.53955078 C-26.35899364 24.33024786 -36.33778804 20.21653481 -48.80517578 20.50927734 C-59.9367807 21.46732531 -69.41584074 25.95707752 -77.03955078 34.13037109 C-85.95392052 44.91012202 -88.87146787 57.90935002 -87.66455078 71.75537109 C-85.88297972 83.54343295 -81.25946459 93.47426731 -71.96142578 101.10302734 C-62.08714136 108.20646665 -51.6646571 109.71586593 -39.66455078 108.75537109 C-31.35480084 107.12466811 -24.75597968 103.64193131 -18.66455078 97.75537109 C-17.67455078 96.27037109 -17.67455078 96.27037109 -16.66455078 94.75537109 C-12.73513827 96.37777769 -9.90657283 99.07323815 -6.85205078 101.94287109 C-6.32160156 102.43464844 -5.79115234 102.92642578 -5.24462891 103.43310547 C-1.76926965 106.67083333 1.6070779 109.993193 4.93310547 113.38427734 C6.61181212 115.02557549 8.39466067 116.43563488 10.33544922 117.75537109 C5.87814001 128.22651018 -6.64356102 134.5002272 -16.66455078 138.75537109 C-38.09861791 146.71442439 -62.50349791 145.88044551 -83.54736328 137.18505859 C-102.44306612 128.51860842 -115.5843635 114.99836046 -123.66455078 95.75537109 C-130.79849744 74.85336179 -131.43677902 50.9891097 -122.08642578 30.61083984 C-121.61720703 29.66853516 -121.14798828 28.72623047 -120.66455078 27.75537109 C-120.19533203 26.78212891 -119.72611328 25.80888672 -119.24267578 24.80615234 C-109.68804339 6.71384101 -92.85992596 -4.48798952 -73.72924805 -10.64746094 C-50.07723283 -17.48828265 -20.20866326 -15.1105552 0 0 Z " fill="#009685" transform="translate(1147.66455078125,202.24462890625)"/>
<path d="M0 0 C12.83754306 10.94569461 18.4434198 23.47397864 20.41015625 40.02734375 C20.41015625 45.30734375 20.41015625 50.58734375 20.41015625 56.02734375 C-4.66984375 56.02734375 -29.74984375 56.02734375 -55.58984375 56.02734375 C-50.97828058 65.25047009 -48.43488025 69.16977035 -39.77734375 73.40234375 C-31.03522817 75.11648406 -23.42524315 74.40985528 -15.58984375 70.02734375 C-13.05053612 68.16154424 -10.87501562 66.21316032 -8.58984375 64.02734375 C-4.99028445 65.35511893 -1.92885002 66.95909446 1.2734375 69.06640625 C2.15966797 69.64648438 3.04589844 70.2265625 3.95898438 70.82421875 C4.87099609 71.4275 5.78300781 72.03078125 6.72265625 72.65234375 C7.65400391 73.26335937 8.58535156 73.874375 9.54492188 74.50390625 C11.83597001 76.00777375 14.12424344 77.51568661 16.41015625 79.02734375 C11.48834727 89.28843658 2.44596317 95.21953522 -7.97265625 99.203125 C-15.81518273 101.67293558 -22.6219173 102.36456675 -30.83984375 102.33984375 C-31.89558594 102.35595703 -32.95132812 102.37207031 -34.0390625 102.38867188 C-49.86770373 102.39835893 -64.02234465 97.269375 -75.59375 86.25 C-87.87967755 72.56958361 -90.28393022 56.98027888 -89.72167969 39.31103516 C-88.91133104 25.27399587 -81.89092055 12.37281751 -71.58984375 3.02734375 C-51.43383568 -12.32540509 -20.99687061 -15.99309149 0 0 Z M-51.58984375 24.02734375 C-52.16734375 24.66671875 -52.74484375 25.30609375 -53.33984375 25.96484375 C-55.049214 28.49785321 -55.049214 28.49785321 -55.58984375 34.02734375 C-41.39984375 34.02734375 -27.20984375 34.02734375 -12.58984375 34.02734375 C-13.54094929 25.27785024 -13.54094929 25.27785024 -18.58984375 19.02734375 C-29.71900799 11.58594991 -43.04769173 13.97775314 -51.58984375 24.02734375 Z " fill="#00D2B9" transform="translate(1844.58984375,242.97265625)"/>
<path d="M0 0 C12.21 0 24.42 0 37 0 C37 38.94 37 77.88 37 118 C55.81 118 74.62 118 94 118 C94 128.56 94 139.12 94 150 C62.98 150 31.96 150 0 150 C0 100.5 0 51 0 0 Z " fill="#009686" transform="translate(1590,391)"/>
<path d="M0 0 C12.21 0 24.42 0 37 0 C37 38.61 37 77.22 37 117 C56.14 117 75.28 117 95 117 C95 127.56 95 138.12 95 149 C63.65 149 32.3 149 0 149 C0 99.83 0 50.66 0 0 Z " fill="#009685" transform="translate(1172,193)"/>
<path d="M0 0 C11.88 0 23.76 0 36 0 C36 52.47 36 104.94 36 159 C24.12 159 12.24 159 0 159 C0 106.53 0 54.06 0 0 Z " fill="#00D2B9" transform="translate(1948,183)"/>
<path d="M0 0 C11.55 0 23.1 0 35 0 C35 52.47 35 104.94 35 159 C23.45 159 11.9 159 0 159 C0 106.53 0 54.06 0 0 Z " fill="#01D2B9" transform="translate(1886,183)"/>
<path d="M0 0 C12.21 0 24.42 0 37 0 C37 49.5 37 99 37 150 C24.79 150 12.58 150 0 150 C0 100.5 0 51 0 0 Z " fill="#009685" transform="translate(1700,391)"/>
<path d="M0 0 C12.21 0 24.42 0 37 0 C37 49.5 37 99 37 150 C24.79 150 12.58 150 0 150 C0 100.5 0 51 0 0 Z " fill="#009686" transform="translate(1344,391)"/>
<path d="M0 0 C9.24 0 18.48 0 28 0 C28 18.81 28 37.62 28 57 C18.76 57 9.52 57 0 57 C0 38.19 0 19.38 0 0 Z " fill="#01D2B9" transform="translate(2015,193)"/>
</svg>
