<?xml version="1.0" encoding="UTF-8"?>
<svg version="1.1" xmlns="http://www.w3.org/2000/svg" width="1497" height="1452">
<path d="M0 0 C13.21540072 11.15778616 20.49967956 26.08997433 22.01496124 43.25071716 C22.47614132 51.24718397 22.58694784 59.25401149 22.69566417 67.26160693 C22.74853976 70.85146844 22.82310534 74.44088961 22.89503479 78.03041077 C23.01522253 84.16924468 23.12237006 90.30818657 23.22006226 96.44741821 C23.36006613 105.24245852 23.5203248 114.03703691 23.68615377 122.83162415 C23.92916548 135.7313318 24.16131594 148.63119546 24.38417208 161.53126609 C24.68244781 178.783315 25.01784135 196.03429195 25.37890625 213.28515625 C25.42781202 215.63343268 25.47670146 217.98170945 25.52557373 220.32998657 C25.61840514 224.78457015 25.71145964 229.23914901 25.80462646 233.69372559 C25.99483528 242.80053397 26.18325354 251.90737201 26.36408806 261.01437187 C26.39904505 262.76132908 26.43459903 264.50827448 26.47085762 266.25520515 C26.64481929 274.64562183 26.78809659 283.03629451 26.8371582 291.4284668 C26.84481547 292.10370046 26.85247274 292.77893412 26.86036205 293.4746294 C26.90501033 310.71330613 20.47169957 324.96155467 8.88671875 337.43359375 C1.56098881 344.35755821 -7.19856488 349.00883806 -16.13879395 353.50177002 C-19.36114026 355.12181958 -22.5705363 356.7672064 -25.78125 358.41015625 C-26.42273987 358.73771912 -27.06422974 359.06528198 -27.72515869 359.402771 C-33.37218905 362.29376869 -38.94599034 365.30917431 -44.5 368.375 C-52.19295713 372.61465835 -59.94572776 376.71892685 -67.75 380.75 C-76.59355965 385.31842568 -85.35972161 390.00539889 -94.08203125 394.80078125 C-101.54850824 398.89495334 -109.08916519 402.8348116 -116.64941406 406.75244141 C-123.1873947 410.1495841 -129.6686631 413.63791218 -136.125 417.1875 C-144.99036981 422.06026441 -153.94115413 426.74920911 -162.92871094 431.39208984 C-170.70743589 435.4210026 -178.40581951 439.58052631 -186.08203125 443.80078125 C-192.59385762 447.37147969 -199.1562902 450.83313825 -205.75 454.25 C-213.4234125 458.22712112 -221.0445205 462.28596994 -228.625 466.4375 C-229.52992188 466.93008301 -230.43484375 467.42266602 -231.3671875 467.93017578 C-235.66657335 470.2728099 -239.94644466 472.64105537 -244.1953125 475.07421875 C-245.71347467 475.92459879 -247.23170015 476.77486581 -248.75 477.625 C-249.42595215 478.02485107 -250.1019043 478.42470215 -250.79833984 478.83666992 C-253.87667946 480.5386403 -255.57663956 481.41877918 -259.05810547 480.54614258 C-262.45196295 479.16798827 -265.62285406 477.59401433 -268.8515625 475.86328125 C-269.47678802 475.52979172 -270.10201355 475.19630219 -270.7461853 474.85270691 C-272.79151052 473.76036842 -274.83323383 472.66147435 -276.875 471.5625 C-278.3161815 470.79124655 -279.75759113 470.02041924 -281.19921875 469.25 C-284.86131183 467.29157896 -288.52053523 465.3278654 -292.17883301 463.36236572 C-295.27155071 461.70135376 -298.36625132 460.04406048 -301.4609375 458.38671875 C-304.86613974 456.56286847 -308.27114487 454.73865894 -311.67529297 452.9128418 C-320.43951345 448.21335736 -329.21666516 443.53864005 -338 438.875 C-338.6657605 438.52149475 -339.331521 438.1679895 -340.01745605 437.80377197 C-344.76126119 435.28513901 -349.50557356 432.76746234 -354.25 430.25 C-359.6670135 427.37565309 -365.08380505 424.50088908 -370.5 421.625 C-371.16608276 421.27133362 -371.83216553 420.91766724 -372.51843262 420.55328369 C-382.91646839 415.03123963 -393.29833442 409.47970246 -403.67285156 403.91357422 C-413.19934988 398.80537689 -422.74429908 393.73246351 -432.29302979 388.66598511 C-442.70837916 383.13913287 -453.10784414 377.58373182 -463.49389648 372.00195312 C-470.03639927 368.49077428 -476.59419496 365.0108923 -483.16796875 361.55859375 C-484.7026637 360.751272 -486.23733172 359.94389904 -487.77197266 359.13647461 C-490.71818755 357.58653193 -493.66748582 356.04268603 -496.61865234 354.50219727 C-515.69436586 344.49906724 -531.76446109 334.04062537 -538.6875 312.375 C-540.66653079 305.43508038 -541.38055961 298.75561447 -541.3344574 291.54664612 C-541.33049719 290.8128953 -541.32653699 290.07914449 -541.32245678 289.3231588 C-541.26121932 280.38218605 -541.08129901 271.44280732 -540.89868164 262.50366211 C-540.86075421 260.58578771 -540.82297276 258.66791041 -540.7853241 256.75003052 C-540.68350299 251.58526134 -540.57958672 246.42053632 -540.4752152 241.25581813 C-540.36513738 235.79333458 -540.2568469 230.33081554 -540.14830017 224.86830139 C-539.96534891 215.674954 -539.78107131 206.48163396 -539.59594727 197.28833008 C-539.38418508 186.77159359 -539.17429077 176.25482119 -538.96548563 165.73802561 C-538.76250254 155.51590353 -538.55833606 145.29380543 -538.35360527 135.07171822 C-538.26757326 130.77580985 -538.18189023 126.47989476 -538.09651375 122.18397331 C-538.05541934 120.11979501 -538.01430161 118.05561718 -537.97315979 115.99143982 C-537.95309398 114.98426161 -537.93302816 113.9770834 -537.91235429 112.93938464 C-537.75677526 105.17348287 -537.59049149 97.40783476 -537.42180938 89.64220792 C-537.30146214 84.00071043 -537.20121919 78.35925156 -537.11623365 72.71711367 C-537.05929408 69.06401568 -536.99163669 65.41116033 -536.92209899 61.75828278 C-536.89247768 60.06928974 -536.86755232 58.38020592 -536.84797299 56.69106662 C-536.60927143 36.44170304 -532.93359399 18.65400823 -518.1484375 3.87890625 C-503.67971194 -9.24434483 -487.68934164 -12.74842751 -468.73974609 -11.91455078 C-453.80778293 -10.92767657 -440.93907623 -1.95779495 -428.25 5.25 C-426.34670914 6.32224492 -424.44307382 7.39387869 -422.5390625 8.46484375 C-418.7652007 10.5914032 -414.99662412 12.72701418 -411.23046875 14.8671875 C-404.76033159 18.53701051 -398.25637326 22.14492444 -391.75 25.75 C-383.39582973 30.38050609 -375.05885286 35.03865273 -366.75 39.75 C-357.34150148 45.08399711 -347.89582348 50.34867971 -338.4375 55.59375 C-330.8646466 59.79418235 -323.30296603 64.01391963 -315.75 68.25 C-309.25479762 71.89252729 -302.75615881 75.52862275 -296.24609375 79.14453125 C-295.3679174 79.63251442 -295.3679174 79.63251442 -294.47200012 80.13035583 C-291.56672021 81.74404404 -288.65937982 83.35376674 -285.74926758 84.95874023 C-280.85758545 87.66102762 -275.98797664 90.37761138 -271.203125 93.265625 C-270.46843994 93.70285889 -269.73375488 94.14009277 -268.97680664 94.59057617 C-267.67118093 95.37288872 -266.37493008 96.1712025 -265.09155273 96.98950195 C-262.33855598 98.62758036 -260.71866803 99.32230878 -257.515625 98.828125 C-252.70164279 96.50175082 -247.99705227 94.01396622 -243.3125 91.4375 C-242.25272949 90.8592749 -241.19295898 90.2810498 -240.10107422 89.68530273 C-232.03481369 85.269375 -224.0305636 80.74782002 -216.03930664 76.19799805 C-207.74446848 71.49099258 -199.3515368 66.97847507 -190.94189453 62.48071289 C-183.82306757 58.66316391 -176.76762672 54.75024806 -169.75 50.75 C-160.43870666 45.44326776 -151.03383167 40.32948686 -141.58764648 35.26733398 C-133.27093929 30.80851502 -125.00704181 26.2648515 -116.77099609 21.65917969 C-108.09053906 16.80700092 -99.39915321 11.97457869 -90.69824219 7.15917969 C-88.42176592 5.89876873 -86.14635203 4.63643682 -83.87207031 3.37207031 C-80.66919159 1.59395633 -77.4604902 -0.17317427 -74.25 -1.9375 C-72.82856689 -2.72991089 -72.82856689 -2.72991089 -71.37841797 -3.53833008 C-47.81863712 -16.41285831 -21.94058584 -16.60640671 0 0 Z " fill="#00D2B9" transform="translate(997.25,349.75)"/>
<path d="M0 0 C3.40431516 3.25542233 6.21144773 6.4970467 8.828125 10.41015625 C9.53686768 11.46807373 10.24561035 12.52599121 10.97583008 13.6159668 C11.73459643 14.76434259 12.49263346 15.91320054 13.25 17.0625 C13.64061615 17.65213531 14.0312323 18.24177063 14.4336853 18.84927368 C31.23534856 44.23697003 46.67288128 70.46267701 59.96044922 97.87207031 C61.11402583 100.2334075 62.29376412 102.58089212 63.47265625 104.9296875 C88.89044922 156.15081379 106.05670956 212.85171622 110 270 C115.28 270.66 120.56 271.32 126 272 C130.59287048 290.0810237 134.46280634 308.28567186 135 327 C135.02723145 327.89944336 135.05446289 328.79888672 135.08251953 329.72558594 C136.08702993 369.16051626 130.70376488 409.24058781 116 446 C108.08 443.69 100.16 441.38 92 439 C91.34 440.98 90.68 442.96 90 445 C85.64993729 454.19027334 80.74309687 462.34149227 74 470 C73.33613281 470.80695313 72.67226562 471.61390625 71.98828125 472.4453125 C58.0026822 488.93849585 35.96988847 503.69948812 14 506 C9.99313998 506.13665296 6.00689882 506.12203753 2 506 C2.62083061 500.06353337 3.39446386 494.19315225 4.37939453 488.30712891 C4.51460007 487.48731033 4.6498056 486.66749176 4.78910828 485.8228302 C5.23480047 483.12370368 5.68381561 480.42514108 6.1328125 477.7265625 C6.45113977 475.80223198 6.76923999 473.87786388 7.08712769 471.95346069 C7.92739154 466.87006062 8.77038907 461.78711781 9.61407471 456.70428467 C10.28044645 452.68814311 10.94557195 448.67179602 11.61026573 444.65537643 C11.93820121 442.67434979 12.26645033 440.69337503 12.59501076 438.71245193 C13.41700341 433.75356868 14.23332772 428.79387107 15.03842163 423.83221436 C16.50118079 414.84768413 17.9985021 405.87760109 19.69524193 396.93385506 C20.43226268 393.03167741 21.13941872 389.12435342 21.84395981 385.21619797 C22.18184011 383.3895017 22.53416701 381.56540557 22.9024086 379.74458694 C25.6641435 366.06431486 25.01447795 357.45622667 17.1539917 345.50265503 C14.68476464 342.05723281 12.04395135 338.9482151 9 336 C9.03721161 337.03987564 9.07442322 338.07975128 9.11276245 339.15113831 C9.10519889 345.36310731 8.08896706 351.44680907 7.19580078 357.58178711 C7.00151875 358.94446012 6.80773566 360.30720435 6.6144104 361.67001343 C6.19860898 364.59343897 5.77930292 367.5163321 5.35721207 370.43885612 C4.6874025 375.07665828 4.02545411 379.71556235 3.36447144 384.35462952 C2.31574914 391.70833365 1.26170681 399.0612639 0.20543182 406.41388661 C-1.67998699 419.53905694 -3.5570451 432.66542341 -5.43116391 445.79221159 C-6.08728518 450.38629316 -6.74595012 454.98000069 -7.40667212 459.57342273 C-7.91841684 463.13326956 -8.42825 466.69338782 -8.93701172 470.25366211 C-9.03257536 470.92194877 -9.128139 471.59023542 -9.2265985 472.27877319 C-10.50096494 481.21286711 -11.67392205 490.14683355 -12.6255188 499.12110901 C-13 502 -13 502 -14 505 C-27.70400487 506.27479115 -41.76709826 498.38180635 -52.1315918 490.08813477 C-59.18738674 484.20881805 -64.8986384 477.6520424 -70 470 C-70.14975409 461.26944355 -68.4211917 452.41158811 -67.02905273 443.81640625 C-66.82996937 442.56054403 -66.630886 441.30468182 -66.42576981 440.01076317 C-65.88173806 436.57963475 -65.33133788 433.14955575 -64.77977729 429.71963072 C-64.18958214 426.04202058 -63.6055007 422.3634391 -63.02070618 418.68496704 C-62.01926389 412.39078623 -61.01417122 406.09719774 -60.00646973 399.80401611 C-58.56318169 390.79033345 -57.12570435 381.77573194 -55.6899569 372.76084542 C-55.03242811 368.63233692 -54.37468846 364.50386202 -53.71688843 360.37539673 C-53.52147502 359.14894756 -53.52147502 359.14894756 -53.32211387 357.89772165 C-52.39913794 352.10577128 -51.47508092 346.31399402 -50.55044556 340.52230835 C-50.42047357 339.7081858 -50.29050159 338.89406325 -50.15659106 338.05527031 C-50.02717887 337.24465484 -49.89776668 336.43403937 -49.76443291 335.59885979 C-45.74370546 310.41339485 -41.74956194 285.22376093 -37.76394653 260.03271484 C-36.77229375 253.76518733 -35.77971201 247.49780722 -34.78686523 241.23046875 C-34.47763449 239.27835102 -34.16840493 237.32623311 -33.85917664 235.37411499 C-33.71204412 234.44528881 -33.56491161 233.51646263 -33.41332054 232.5594902 C-32.61300703 227.50899662 -32.61300703 227.50899662 -31.81487274 222.45815849 C-31.57101547 220.92426957 -31.32338424 219.39097508 -31.07167816 217.85835457 C-30.41713164 213.84040341 -29.85166837 209.830295 -29.39067078 205.78521729 C-29.28211132 204.92341543 -29.17355186 204.06161358 -29.06170273 203.17369652 C-28.85608461 201.52944877 -28.67389013 199.88202967 -28.51994705 198.23214149 C-28.09999802 195.03604188 -27.76882735 192.80988171 -25.50522995 190.42541122 C-22.52042138 188.20208276 -19.36778353 186.45923134 -15.86083984 185.19726562 C-15.11775574 184.91923096 -14.37467163 184.64119629 -13.60906982 184.35473633 C-12.85120178 184.07267334 -12.09333374 183.79061035 -11.3125 183.5 C-9.77249188 182.86347694 -8.2355384 182.21951538 -6.70166016 181.56835938 C-3.62276616 180.27129236 -0.53244526 179.01293142 2.57470703 177.78515625 C8.87674584 175.27587061 14.98656016 172.3824226 21.125 169.5 C23.06380714 168.61174682 25.00376819 167.72600425 26.9453125 166.84375 C28.29688744 166.22919403 29.64845225 165.61461578 31 165 C29.80245793 158.42292367 28.25552895 152.10110903 26.19921875 145.7421875 C25.92671295 144.88849579 25.65420715 144.03480408 25.3734436 143.15524292 C24.48662584 140.39232874 23.58879964 137.63322212 22.6875 134.875 C22.37831635 133.92580688 22.06913269 132.97661377 21.75057983 131.99865723 C11.56294354 100.84893682 -0.34792974 69.82585557 -18.02539062 42.08935547 C-18.55841797 41.23229004 -19.09144531 40.37522461 -19.640625 39.4921875 C-20.12047852 38.74308105 -20.60033203 37.99397461 -21.09472656 37.22216797 C-22.26033202 34.36096493 -21.93454335 32.91333604 -21 30 C-20.03540039 28.18579102 -20.03540039 28.18579102 -18.84765625 26.50390625 C-18.40526611 25.86904297 -17.96287598 25.23417969 -17.50708008 24.58007812 C-17.03036865 23.91427734 -16.55365723 23.24847656 -16.0625 22.5625 C-15.57612061 21.86962891 -15.08974121 21.17675781 -14.58862305 20.46289062 C-13.06804671 18.30208456 -11.53533091 16.15034116 -10 14 C-9.01547594 12.61338707 -8.03109657 11.2266714 -7.046875 9.83984375 C-4.70865926 6.55209878 -2.35800059 3.27357999 0 0 Z " fill="#00D2B9" transform="translate(1117,261)"/>
<path d="M0 0 C3.54580262 1.18193421 3.9123361 1.97641985 5.85546875 5.05078125 C6.39212158 5.88963867 6.92877441 6.72849609 7.48168945 7.59277344 C8.04460693 8.4902832 8.60752441 9.38779297 9.1875 10.3125 C10.35102424 12.13706211 11.51508589 13.96128163 12.6796875 15.78515625 C13.52805176 17.12151123 13.52805176 17.12151123 14.39355469 18.48486328 C17.51717619 23.3753722 20.76092644 28.1854254 24 33 C21.45363711 37.72164777 18.79675481 42.35669352 15.98876953 46.92822266 C-1.76025467 75.96005487 -32 127.94099443 -32 163 C-31.04971924 163.48766846 -30.09943848 163.97533691 -29.12036133 164.4777832 C-18.40878624 169.97589916 -7.7019797 175.48322972 3 181 C3.63256714 181.32595154 4.26513428 181.65190308 4.91687012 181.98773193 C8.46884038 183.81860024 12.01702655 185.65658564 15.5625 187.5 C16.41030029 187.93739502 17.25810059 188.37479004 18.1315918 188.82543945 C18.89383057 189.22335693 19.65606934 189.62127441 20.44140625 190.03125 C21.08795166 190.36705078 21.73449707 190.70285156 22.40063477 191.04882812 C24 192 24 192 26 194 C26.55213093 196.79668523 26.98951535 199.53716722 27.36254883 202.35913086 C27.54712867 203.67782197 27.54712867 203.67782197 27.73543739 205.02315331 C28.15051518 208.00268184 28.55357283 210.98372126 28.95703125 213.96484375 C29.25472995 216.11650104 29.55326024 218.26804341 29.85255432 220.41947937 C30.50329441 225.10766398 31.14901278 229.79650349 31.79095459 234.48590088 C33.36241584 245.96214271 34.95939913 257.43485057 36.55414581 268.90787506 C36.93513921 271.64920534 37.31568313 274.39059748 37.69585419 277.13204193 C40.96060099 300.67300446 44.29385823 324.20382408 47.66015625 347.73046875 C47.7791463 348.56221233 47.89813635 349.39395591 48.02073216 350.25090384 C50.15554438 365.17252559 52.29466991 380.09352852 54.43490368 395.01437348 C54.55069852 395.82164897 54.66649335 396.62892446 54.78579712 397.46066284 C54.95850534 398.66470016 54.95850534 398.66470016 55.13470262 399.89306146 C56.03192041 406.14861831 56.92816063 412.40431484 57.82379061 418.66009921 C58.34385429 422.29212259 58.86449065 425.92406173 59.38659859 429.55579185 C59.58452726 430.93292001 59.78244851 432.31004922 59.98036194 433.68717957 C60.12341468 434.68216464 60.12341468 434.68216464 60.26935738 435.69725043 C60.88988788 440.02019395 61.49841167 444.34471175 62.10247803 448.66998291 C62.63954867 452.51209406 63.20697719 456.34547527 63.82574463 460.17523193 C63.93885294 460.92027166 64.05196125 461.66531139 64.16849709 462.43292809 C64.44815071 464.27481813 64.7463262 466.1138731 65.04678345 467.95248413 C64.95412539 473.98831354 61.03692376 477.87998347 57 482 C56.42378906 482.65355469 55.84757813 483.30710937 55.25390625 483.98046875 C45.1908516 494.91227632 29.32024368 504.19417011 14.3125 505.17578125 C12.2075408 505.18564825 10.10244127 505.10339875 8 505 C6.65464616 496.53930618 5.46459427 488.07566221 4.44140625 479.5703125 C4.14007456 477.09854909 3.8387226 474.62678815 3.53735352 472.1550293 C3.3790506 470.85044769 3.22074768 469.54586609 3.05764771 468.20175171 C2.19088096 461.05947376 1.31428576 453.91839754 0.4375 446.77734375 C0.34368608 446.01299578 0.24987217 445.2486478 0.15321541 444.46113777 C-2.25694975 424.83423895 -4.71855398 405.21380886 -7.19290161 385.59490967 C-7.68958817 381.65645881 -8.18504183 377.71785595 -8.67941284 373.77911377 C-9.26605151 369.10587873 -9.85511454 364.43295571 -10.4460907 359.76026726 C-10.66511544 358.02557522 -10.88332991 356.29078066 -11.10069275 354.55587959 C-11.39939726 352.17326955 -11.70113554 349.79106287 -12.00366211 347.40893555 C-12.13372981 346.36320216 -12.13372981 346.36320216 -12.26642513 345.29634285 C-12.67059955 342.13833219 -13.12698313 339.06531266 -14 336 C-16.36224433 339.81620931 -18.68429918 343.65540018 -21 347.5 C-21.66773438 348.57765625 -22.33546875 349.6553125 -23.0234375 350.765625 C-23.65507812 351.82265625 -24.28671875 352.8796875 -24.9375 353.96875 C-25.81728516 355.41411133 -25.81728516 355.41411133 -26.71484375 356.88867188 C-29.75288361 364.24368328 -27.43592294 372.88056481 -26.27172852 380.49951172 C-26.08801697 381.73307404 -25.90430542 382.96663635 -25.71502686 384.23757935 C-25.31658961 386.9072406 -24.91606749 389.576485 -24.51184273 392.24526596 C-23.87142252 396.47360574 -23.2392654 400.70315638 -22.60813904 404.93289185 C-21.60798092 411.62917106 -20.60230594 418.3246081 -19.59427255 425.01970589 C-17.79137076 436.99488349 -15.99654198 448.97127065 -14.20571464 460.94825947 C-13.57810843 465.14406043 -12.94768162 469.33942474 -12.31486332 473.53444266 C-11.82731557 476.76992241 -11.34279101 480.00585546 -10.85766602 483.24169922 C-10.68359726 484.39007263 -10.5095285 485.53844604 -10.33018494 486.72161865 C-9.37178051 493.13618215 -8.57010432 499.53895471 -8 506 C-31.79738387 504.16456348 -51.57147072 494.10270755 -69 478 C-69.73605469 477.34515625 -70.47210938 476.6903125 -71.23046875 476.015625 C-80.36756705 467.4803715 -86.81871557 456.76871532 -92.625 445.8125 C-93.06312012 444.98645264 -93.50124023 444.16040527 -93.95263672 443.30932617 C-97 437.3920861 -97 437.3920861 -97 434 C-97.65073486 434.18699463 -98.30146973 434.37398926 -98.97192383 434.56665039 C-101.91634562 435.40742566 -104.86429467 436.23509452 -107.8125 437.0625 C-108.83666016 437.35705078 -109.86082031 437.65160156 -110.91601562 437.95507812 C-111.89892578 438.22900391 -112.88183594 438.50292969 -113.89453125 438.78515625 C-115.25348511 439.17006226 -115.25348511 439.17006226 -116.63989258 439.56274414 C-119 440 -119 440 -122 439 C-122.88793945 437.23535156 -122.88793945 437.23535156 -123.61328125 434.890625 C-123.88881836 434.00592529 -124.16435547 433.12122559 -124.44824219 432.2097168 C-124.73344727 431.23301025 -125.01865234 430.25630371 -125.3125 429.25 C-125.76544434 427.72016479 -125.76544434 427.72016479 -126.22753906 426.15942383 C-129.9272137 413.26964118 -132.674578 400.2012701 -135 387 C-135.27118652 385.46593506 -135.27118652 385.46593506 -135.54785156 383.90087891 C-140.37571883 354.96726879 -140.88945191 321.77024779 -135 293 C-134.80180664 292.0198291 -134.60361328 291.0396582 -134.39941406 290.02978516 C-130.96417236 273.41043091 -130.96417236 273.41043091 -128 266 C-122.72 265.67 -117.44 265.34 -112 265 C-111.938125 262.958125 -111.87625 260.91625 -111.8125 258.8125 C-108.85124706 204.25170728 -87.13620573 149.21832905 -63 101 C-62.49919922 99.99050293 -61.99839844 98.98100586 -61.48242188 97.94091797 C-53.45552196 81.8281722 -44.47310467 66.43591795 -34.97021484 51.16601562 C-33.20558011 48.33035475 -31.45434372 45.48697482 -29.70703125 42.640625 C-23.39359376 32.42413063 -16.5945143 22.6412594 -9.46142578 12.98144531 C-7.35404758 10.12419816 -5.27155154 7.24930036 -3.1875 4.375 C-2.12532703 2.91642846 -1.06297945 1.4579839 0 0 Z " fill="#00D2B9" transform="translate(368,245)"/>
<path d="M0 0 C1.65298096 0.02900391 1.65298096 0.02900391 3.33935547 0.05859375 C94.03121081 1.8264155 182.082819 28.86589907 256 82 C257.1125415 82.79591553 257.1125415 82.79591553 258.24755859 83.60791016 C272.74729297 94.01805285 286.73240651 105.01293272 299.8984375 117.078125 C301.80036142 118.81743089 303.73319732 120.50763131 305.6875 122.1875 C311.55581437 127.31492498 317.24318976 132.63852768 322.89453125 138.00292969 C324.34640392 139.38005382 325.80239145 140.75284828 327.26171875 142.12207031 C329.52390383 144.25271068 331.76397938 146.40445113 334 148.5625 C334.71285156 149.22886475 335.42570312 149.89522949 336.16015625 150.58178711 C336.80855469 151.21608643 337.45695312 151.85038574 338.125 152.50390625 C338.70507812 153.05892822 339.28515625 153.6139502 339.8828125 154.18579102 C341 156 341 156 340.82568359 158.52734375 C339.60749864 162.17541506 337.17042239 164.64634252 334.625 167.4375 C333.51841622 168.68796934 332.41430518 169.94063064 331.3125 171.1953125 C330.75433594 171.82985352 330.19617187 172.46439453 329.62109375 173.11816406 C327.1897708 175.9405492 324.90247893 178.86554938 322.625 181.8125 C317.76470231 188.08161871 312.74758554 194.21141082 307.68212891 200.31567383 C307.11671387 200.99782959 306.55129883 201.67998535 305.96875 202.3828125 C305.46794922 202.98496582 304.96714844 203.58711914 304.45117188 204.20751953 C302.91673636 206.10284685 301.45172035 208.04082465 300 210 C296.13746693 208.40202532 293.41810718 205.77829295 290.4375 202.9375 C285.71267079 198.51985335 280.86049675 194.34689639 275.81640625 190.29296875 C273.36122966 188.29409405 270.96104002 186.24480221 268.57080078 184.16918945 C205.81508612 129.96752542 125.91388562 95.2085826 44 84 C42.80793945 83.83628906 41.61587891 83.67257813 40.38769531 83.50390625 C-58.04976076 70.57480754 -160.05710861 99.48262832 -247 159 C-248.25514404 159.87253418 -248.25514404 159.87253418 -249.53564453 160.76269531 C-265.46935654 171.90691524 -280.32040252 184.27003656 -295 197 C-299.07530048 195.45674562 -300.87906757 192.88469648 -303.4375 189.4375 C-304.32531251 188.25374998 -305.21334436 187.07016444 -306.1015625 185.88671875 C-306.57110352 185.25556152 -307.04064453 184.6244043 -307.52441406 183.97412109 C-310.08946761 180.54244953 -312.70498306 177.14944109 -315.3125 173.75 C-316.41045171 172.31402794 -317.5081041 170.87782699 -318.60546875 169.44140625 C-320.94039771 166.38594608 -323.27640909 163.33131799 -325.61328125 160.27734375 C-326.20133545 159.50874023 -326.78938965 158.74013672 -327.39526367 157.94824219 C-328.52159859 156.47613756 -329.6480571 155.00412749 -330.7746582 153.53222656 C-333.19731791 150.36528109 -335.61676856 147.19681734 -338 144 C-336.40584497 140.08790692 -333.86106668 137.62781914 -330.875 134.6875 C-330.13141235 133.95466797 -330.13141235 133.95466797 -329.37280273 133.20703125 C-326.06387642 129.97035224 -322.6687886 126.87026252 -319.1484375 123.8671875 C-316.96780107 121.9720162 -314.84587519 120.02030926 -312.72875977 118.0546875 C-306.68162183 112.44530373 -300.45684929 107.13752014 -294 102 C-293.48775879 101.58814453 -292.97551758 101.17628906 -292.44775391 100.75195312 C-214.73712398 38.28284596 -122.46267235 2.58189047 0 0 Z " fill="#009685" transform="translate(738,65)"/>
<path d="M0 0 C1.22131786 0.5616329 2.4390869 1.13102672 3.65380859 1.70678711 C4.3240657 2.01689728 4.99432281 2.32700745 5.68489075 2.64651489 C7.13428859 3.31784265 8.58220616 3.99237373 10.02877808 4.66976929 C13.95024299 6.5056678 17.88274427 8.3176789 21.81396484 10.13256836 C22.62771072 10.50896957 23.4414566 10.88537079 24.27986145 11.2731781 C32.84980232 15.22974967 41.47970244 19.04735164 50.11474609 22.85913086 C61.81947061 28.03277721 73.45734066 33.32193743 85.046875 38.74975586 C94.30953206 43.07259338 103.63975626 47.22946833 112.98974609 51.35913086 C125.77722562 57.00743676 138.49714712 62.78631498 151.17724609 68.67163086 C163.62926474 74.45069563 176.11848457 80.12832226 188.67724609 85.67163086 C200.50132841 90.891469 212.2714349 96.21474716 223.99902344 101.64807129 C226.47095748 102.78796677 228.94818798 103.91548796 231.42724609 105.03979492 C239.16418674 108.56197433 246.75937102 112.19580595 254.22021484 116.27319336 C267.56497193 124.0030683 267.56497193 124.0030683 282.33349609 124.93725586 C287.31254085 123.11325386 291.72446188 120.42700974 296.23046875 117.66088867 C302.53134866 114.02442675 309.21329902 111.17381212 315.84106445 108.18920898 C319.23894031 106.65084592 322.62109553 105.07944429 326.00393677 103.50836182 C336.17995707 98.78493771 346.41344108 94.2004775 356.67724609 89.67163086 C370.0670374 83.7622925 383.37201385 77.68660097 396.64752197 71.52511597 C408.23476063 66.14992231 419.86544419 60.8890603 431.55224609 55.73413086 C445.52597077 49.56969083 459.39919949 43.20575124 473.24502563 36.759552 C485.35871447 31.12045764 497.49488571 25.5451189 509.7121582 20.13354492 C515.38361792 17.61800127 521.01802427 15.04951143 526.61083984 12.36303711 C528.27167603 11.57316406 528.27167603 11.57316406 529.96606445 10.76733398 C532.04566787 9.7744115 534.11864732 8.76744418 536.18334961 7.74389648 C537.09914795 7.30883789 538.01494629 6.8737793 538.95849609 6.42553711 C539.75320313 6.03696533 540.54791016 5.64839355 541.36669922 5.24804688 C544.45350101 4.47797724 545.8894698 5.23834002 548.67724609 6.67163086 C550.85882859 8.07387359 552.98821356 9.50355257 555.11474609 10.98413086 C570.39186028 21.37333284 586.65748138 30.2779306 602.6706543 39.47119141 C609.0488977 43.13582032 615.38546254 46.86036286 621.67724609 50.67163086 C619.92283669 54.18044967 615.52517793 54.69433577 611.97802734 55.91772461 C611.06168015 56.24027725 610.14533295 56.5628299 609.20121765 56.89515686 C606.13307754 57.97331601 603.06142799 59.04110826 599.98974609 60.10913086 C597.82217984 60.86883876 595.65486651 61.62926864 593.48779297 62.39038086 C588.89941023 64.00072491 584.3096363 65.60701255 579.71875 67.21020508 C572.86163248 69.60557174 566.00895584 72.01342034 559.15771484 74.42553711 C558.04785721 74.81627914 556.93799957 75.20702118 555.79450989 75.60960388 C553.54979082 76.39994433 551.30508562 77.19032418 549.06039429 77.98074341 C545.64822276 79.18184724 542.23567037 80.38186283 538.82299805 81.58154297 C524.10038996 86.75757933 509.38584215 91.95592066 494.67724609 97.17163086 C477.68604069 103.19676086 460.68484422 109.19293355 443.67724609 115.17163086 C424.00221898 122.08856863 404.33669009 129.03168639 384.67997742 136.00048828 C383.69165421 136.35087158 382.70333099 136.70125488 381.68505859 137.06225586 C380.68042068 137.41843994 379.67578278 137.77462402 378.64070129 138.14160156 C370.52039263 141.01991042 362.39819579 143.8928588 354.27548027 146.76436615 C352.10233244 147.53263249 349.92921949 148.30099738 347.75611877 149.06939697 C346.67658385 149.45111368 346.67658385 149.45111368 345.57524014 149.84054184 C344.11996592 150.35511907 342.66469262 150.86969884 341.2094202 151.38428116 C336.99314732 152.87508509 332.77669067 154.36536739 328.56002522 155.85506058 C326.56046833 156.56173063 324.56118072 157.26915874 322.56190491 157.97662354 C319.97702766 158.89105569 317.39078092 159.80145416 314.80345154 160.70892334 C308.66764694 162.86620262 302.56288197 165.08134686 296.49707031 167.42944336 C295.36466415 167.86039307 294.232258 168.29134277 293.0655365 168.73535156 C290.96117742 169.53967415 288.86370658 170.3623792 286.77540588 171.20751953 C280.32554937 173.65216988 276.18185263 173.96736878 269.67724609 171.67163086 C269.02857071 171.46558228 268.37989532 171.25953369 267.71156311 171.04724121 C265.72060704 170.3960344 263.75691843 169.69036159 261.79052734 168.96850586 C260.66630875 168.56384094 260.66630875 168.56384094 259.51937866 168.15100098 C257.87838744 167.55969843 256.23828139 166.96593485 254.59896851 166.36999512 C250.93926581 165.03981674 247.27511807 163.72207701 243.61122131 162.40350342 C241.58736324 161.67511497 239.56371829 160.94613413 237.54026794 160.21661377 C229.36294968 157.27047529 221.17480499 154.35545475 212.98193359 151.45288086 C212.35056425 151.22918383 211.71919491 151.00548679 211.06869316 150.77501106 C207.82262353 149.6250306 204.57642389 148.47541755 201.33016968 147.32595825 C180.42921068 139.92470509 159.54327624 132.48340553 138.67724609 124.98413086 C119.66419632 118.15117641 100.6207167 111.40886417 81.55764771 104.71679688 C62.48496546 98.02111346 43.44061666 91.24975402 24.40963745 84.43659973 C15.34165731 81.19139179 6.26725565 77.96428597 -2.80783081 74.73901367 C-5.61440696 73.74153999 -8.42086167 72.74372525 -11.22729492 71.74584961 C-20.0146625 68.62178393 -28.80303167 65.5005768 -37.59355164 62.38539124 C-41.68600509 60.93489049 -45.77800633 59.4831165 -49.8699646 58.03121948 C-51.8083973 57.34383186 -53.74705003 56.65706435 -55.6859436 55.97097778 C-65.9529029 52.33786663 -76.18913745 48.66518003 -86.32275391 44.67163086 C-86.32275391 44.01163086 -86.32275391 43.35163086 -86.32275391 42.67163086 C-85.45779297 42.1959668 -84.59283203 41.72030273 -83.70166016 41.23022461 C-75.17838972 36.50589757 -66.79012748 31.5833389 -58.44775391 26.54663086 C-48.42603784 20.49671146 -38.33336932 14.59020749 -28.17675781 8.77075195 C-27.16403809 8.19019043 -26.15131836 7.60962891 -25.10791016 7.01147461 C-24.1348291 6.45830566 -23.16174805 5.90513672 -22.15917969 5.33520508 C-20.26622121 4.22497792 -18.39904496 3.06959535 -16.56054688 1.87133789 C-15.26528076 1.0319165 -15.26528076 1.0319165 -13.94384766 0.17553711 C-13.19417725 -0.33033936 -12.44450684 -0.83621582 -11.67211914 -1.35742188 C-7.42082494 -3.11439964 -4.11541357 -1.64525828 0 0 Z " fill="#009685" transform="translate(462.32275390625,745.328369140625)"/>
<path d="M0 0 C0.82886719 0.65484375 1.65773438 1.3096875 2.51171875 1.984375 C18.39101943 15.3103425 26.70654969 34.6456285 29 55 C30.52326859 80.45777626 24.71019277 102.88062903 8.25 122.6875 C-6.14468156 138.17438503 -27.51394673 147.74489321 -48.65234375 148.94140625 C-49.42707031 148.96074219 -50.20179687 148.98007813 -51 149 C-51.92941406 149.05027344 -52.85882812 149.10054687 -53.81640625 149.15234375 C-76.67374585 149.86752959 -99.97755656 143.25760037 -117.1875 127.8125 C-133.19946261 112.77174209 -142.36635007 93.41731048 -143.37890625 71.515625 C-143.99556345 48.23804234 -140.14285581 26.77099792 -124 9 C-123.35804687 8.26652344 -122.71609375 7.53304688 -122.0546875 6.77734375 C-92.19923015 -25.33655226 -33.51001824 -27.17337084 0 0 Z M-91 32 C-97.02305195 40.05299406 -101.25380031 49.92630421 -102 60 C-102.0515625 60.62648438 -102.103125 61.25296875 -102.15625 61.8984375 C-102.79271675 76.16590059 -98.23811149 88.89966161 -89.25 99.8125 C-80.67269481 108.91062827 -69.99310786 112.97611451 -57.625 113.4375 C-46.8600995 113.1434469 -37.36018424 109.76384984 -29 103 C-28.38640625 102.52175781 -27.7728125 102.04351563 -27.140625 101.55078125 C-19.02656302 94.42404982 -13.87960574 82.55364636 -12.78295898 71.8894043 C-11.92744697 56.41113669 -14.90777923 43.14249195 -24.7421875 30.81640625 C-32.48497768 22.31861371 -43.03441172 17.81775681 -54.35546875 16.78515625 C-68.66833862 16.21628225 -81.32454878 21.606519 -91 32 Z " fill="#009685" transform="translate(1421,1254)"/>
<path d="M0 0 C16.94698854 15.74944974 23.17062584 36.84172973 24.875 59.140625 C25.54841134 81.19484651 18.22200702 102.16857689 3.6875 118.6875 C2.67042969 119.84765625 2.67042969 119.84765625 1.6328125 121.03125 C-13.70141237 137.43269199 -36.23033825 144.86786352 -58.22265625 145.8125 C-81.50919364 146.26521519 -105.20242797 140.19894819 -122.30859375 123.7487793 C-123.65709034 122.40882626 -124.98546762 121.04871352 -126.3125 119.6875 C-126.97765625 119.03136719 -127.6428125 118.37523437 -128.328125 117.69921875 C-143.04285579 102.22223839 -149.02117252 79.45345877 -148.49609375 58.54296875 C-147.01912142 35.57133521 -139.94885837 14.80444666 -122.33984375 -0.9765625 C-111.42217067 -9.97867715 -99.04981539 -15.88248022 -85.3125 -19.3125 C-83.97251953 -19.65087891 -83.97251953 -19.65087891 -82.60546875 -19.99609375 C-53.2416047 -26.08731018 -23.1288423 -18.70379752 0 0 Z M-95.42578125 28.22265625 C-104.78634113 40.45146223 -107.29972452 53.55005734 -106.3125 68.6875 C-104.43565958 81.65189348 -98.80507104 93.59780782 -88.3125 101.6875 C-76.77792529 108.75413668 -65.36546424 111.71421444 -51.90234375 109 C-39.65579594 105.56237254 -30.64665596 99.12516489 -23.80859375 88.30859375 C-16.63945676 74.97613899 -15.16415998 60.02839115 -19.34765625 45.4921875 C-23.16663719 34.39085828 -29.84558572 24.52318076 -40.2734375 18.64453125 C-59.31007187 9.70971244 -80.75392838 12.71751356 -95.42578125 28.22265625 Z " fill="#009685" transform="translate(754.3125,1257.3125)"/>
<path d="M0 0 C99 0 99 0 124 20 C125.051875 20.763125 126.10375 21.52625 127.1875 22.3125 C140.83559425 35.35401228 147.62224051 54.11375026 148.203125 72.75 C148.53385994 94.78364512 144.64490035 113.9604946 130 131 C129.38511719 131.72703125 128.77023437 132.4540625 128.13671875 133.203125 C114.03619603 148.54159511 94.73278323 153.61493706 75 158 C50.25 158 25.5 158 0 158 C0 105.86 0 53.72 0 0 Z M38 34 C38 64.03 38 94.06 38 125 C69.58877764 125.57851892 69.58877764 125.57851892 96.1953125 110.96484375 C106.67249446 100.00439694 107.46915044 87.95629891 107.27734375 73.5234375 C106.86186704 61.26584117 102.03422305 52.62399886 93.3125 44.3125 C77.5100139 31.10355169 57.79667541 34 38 34 Z " fill="#009685" transform="translate(371,1240)"/>
<path d="M0 0 C93.15129405 0 93.15129405 0 108.17578125 13.8359375 C116.25567154 23.42107502 117.73153829 33.98891847 117.17480469 46.00830078 C116.28873193 56.10408512 110.66804517 62.78737387 103.4375 69.3125 C100.74064359 71.17955444 97.94249134 72.55902688 95 74 C95.95261719 74.45890625 96.90523437 74.9178125 97.88671875 75.390625 C99.15380572 76.01008974 100.4207239 76.62989981 101.6875 77.25 C102.31333984 77.55035156 102.93917969 77.85070313 103.58398438 78.16015625 C112.42841074 82.51291059 117.88216245 88.70063745 121.8125 97.75 C125.53369238 108.91357714 124.71443737 121.71102407 119.75 132.3125 C113.1700789 144.21721274 102.80866535 150.82973686 90 155 C60.44008473 160.21645564 30.01666204 158 0 158 C0 105.86 0 53.72 0 0 Z M38 31 C38 41.23 38 51.46 38 62 C42.29 62.061875 46.58 62.12375 51 62.1875 C53.00513672 62.22846802 53.00513672 62.22846802 55.05078125 62.27026367 C63.18695698 62.32690022 69.16907685 61.8315519 75.875 56.875 C79.54805771 51.90556897 80.33270803 47.25502108 79.4375 41.1875 C77.50722699 36.90732942 75.47140402 35.14004789 71.22119141 33.17944336 C64.30788046 30.56787574 57.7503245 30.6559055 50.4375 30.8125 C44.2809375 30.9053125 44.2809375 30.9053125 38 31 Z M38 91 C38 102.55 38 114.1 38 126 C42.558125 126.0825 47.11625 126.165 51.8125 126.25 C53.22635986 126.28641602 54.64021973 126.32283203 56.09692383 126.36035156 C64.36975606 126.43221364 72.98036494 126.05161388 79.70654297 120.62255859 C82.98258849 117.00439813 85.00579208 112.93658416 84.99609375 108.01953125 C84.61645386 103.71425332 83.93657106 100.29251906 81 97 C71.07977232 90.71303344 61.97626342 90.85717645 50.5625 90.9375 C46.416875 90.958125 42.27125 90.97875 38 91 Z " fill="#009685" transform="translate(636,1030)"/>
<path d="M0 0 C92.71662521 0 92.71662521 0 107.87109375 14.66796875 C116.04815413 23.62522572 117.60449303 33.00864195 117.30078125 44.76953125 C116.71830849 55.55846092 111.8916343 62.82699682 104 70 C100.74892897 72.41490305 98.15952121 74 94 74 C94 74.66 94 75.32 94 76 C95.918125 76.2784375 95.918125 76.2784375 97.875 76.5625 C106.43954186 78.47772038 114.29411904 84.62401103 119 92 C124.55014356 103.20736384 125.64438853 114.99804738 122 127 C117.43018893 138.61994722 111.3379221 145.5984284 100.375 151.3125 C99.76092285 151.63831055 99.1468457 151.96412109 98.51416016 152.29980469 C70.91412128 165.73289527 19.56447249 158 0 158 C0 105.86 0 53.72 0 0 Z M38 31 C38 41.56 38 52.12 38 63 C41.898125 63.0825 45.79625 63.165 49.8125 63.25 C51.62004761 63.30462402 51.62004761 63.30462402 53.46411133 63.36035156 C61.833129 63.44500432 69.99871899 62.41572769 76.5625 56.8125 C79.31092882 51.43513927 80.58553706 47.10104476 78.9375 41.1875 C75.96196723 36.29226868 72.46446354 33.65204712 67 32 C60.63409342 30.99974532 54.43464602 30.88026488 48 30.9375 C43.05 30.9684375 43.05 30.9684375 38 31 Z M38 92 C38 103.55 38 115.1 38 127 C44.1565625 127.061875 44.1565625 127.061875 50.4375 127.125 C52.35067017 127.15231201 52.35067017 127.15231201 54.30249023 127.18017578 C64.40126717 127.22899638 72.93222539 126.51116869 81 120 C84.47188381 115.96813493 85.14293999 111.20837599 85 106 C83.45853863 100.77615867 81.66110448 97.83719403 77 95 C69.10960296 91.19681278 61.01257569 91.65471079 52.4375 91.8125 C45.2909375 91.9053125 45.2909375 91.9053125 38 92 Z " fill="#009685" transform="translate(990,1240)"/>
<path d="M0 0 C91.34074074 0 91.34074074 0 107 14 C107.61488281 14.51175781 108.22976563 15.02351563 108.86328125 15.55078125 C117.03991262 22.88698798 120.50473766 33.56222091 121.21875 44.28515625 C121.55537322 57.1750204 118.70884307 69.49758396 109.8984375 79.26953125 C104.17315367 84.48825705 97.21539041 88.27418584 90 91 C94.06487956 98.6485944 98.3995215 106.09749653 102.9201355 113.4850769 C104.02687328 115.2939215 105.13013246 117.10484993 106.23266602 118.91625977 C109.85992978 124.87252077 113.50184314 130.81967581 117.15234375 136.76171875 C117.79236328 137.80618164 118.43238281 138.85064453 119.09179688 139.92675781 C120.29404284 141.88788179 121.49960864 143.84697566 122.70898438 145.80371094 C123.24716797 146.68188477 123.78535156 147.56005859 124.33984375 148.46484375 C124.80769287 149.224021 125.27554199 149.98319824 125.75756836 150.76538086 C127 153 127 153 129 158 C113.82 158 98.64 158 83 158 C80.463125 153.194375 77.92625 148.38875 75.3125 143.4375 C69.37530634 132.22522126 63.33573139 121.09129168 57.0246582 110.08374023 C56.53441162 109.22852783 56.04416504 108.37331543 55.5390625 107.4921875 C55.07918945 106.71327148 54.61931641 105.93435547 54.14550781 105.13183594 C53 103 53 103 51.8984375 99.4453125 C51.27195312 98.63835937 50.64546875 97.83140625 50 97 C46.04 96.67 42.08 96.34 38 96 C38 116.46 38 136.92 38 158 C25.46 158 12.92 158 0 158 C0 105.86 0 53.72 0 0 Z M38 32 C38 43.88 38 55.76 38 68 C58.24861624 68.94562165 58.24861624 68.94562165 77 62 C81.69268815 57.06666117 82.30646136 53.0151879 82.2109375 46.43359375 C81.79728062 41.66121898 79.57596681 39.56287666 76.25 36.3125 C68.63923809 30.89715018 60.57663391 31.75760276 51.5625 31.875 C47.086875 31.91625 42.61125 31.9575 38 32 Z " fill="#009685" transform="translate(1138,1240)"/>
<path d="M0 0 C12.87 0 25.74 0 39 0 C39.00410889 3.11791992 39.00821777 6.23583984 39.01245117 9.44824219 C39.0296948 19.78201182 39.07427367 30.11553566 39.13209057 40.4491539 C39.16629346 46.71077966 39.1914602 52.97216315 39.19555664 59.23388672 C39.19985384 65.28361746 39.22843527 71.33280229 39.27343178 77.38236237 C39.28636125 79.68343163 39.29073072 81.98456638 39.28615379 84.28566742 C38.73572046 102.84229058 38.73572046 102.84229058 46.75505066 118.99749756 C52.6214352 124.66490079 59.36791809 126.57095783 67.3125 126.5 C68.05798096 126.49427979 68.80346191 126.48855957 69.5715332 126.48266602 C77.71537396 126.22007556 83.75146657 123.67065131 89.4375 117.75 C95.94254693 109.29711416 96.13924366 98.44117988 96.20532227 88.20922852 C96.21522186 87.25235641 96.22512146 86.29548431 96.23532104 85.30961609 C96.26675429 82.16607078 96.29162121 79.0225104 96.31640625 75.87890625 C96.33699149 73.69172283 96.35798837 71.50454324 96.37937927 69.31736755 C96.4344378 63.57503376 96.48391831 57.83266502 96.53222656 52.090271 C96.58256035 46.22486277 96.63818429 40.35950495 96.69335938 34.49414062 C96.80074245 22.99613531 96.90174196 11.49808692 97 0 C109.87 0 122.74 0 136 0 C136.04535439 13.04008499 136.0819755 26.08011678 136.10362434 39.1202631 C136.11401961 45.17664099 136.12810028 51.23296167 136.15087891 57.28930664 C136.17276006 63.14430229 136.18460057 68.99924324 136.18975449 74.85427666 C136.19342301 77.07754819 136.20058592 79.30081705 136.21146011 81.52406502 C136.30852837 102.21028343 136.20533716 121.81992205 123 139 C122.52304687 139.66386719 122.04609375 140.32773438 121.5546875 141.01171875 C111.50538549 153.86371554 95.41312766 159.80678863 79.8125 162.3125 C59.16064167 164.74622068 38.4753678 161.57312256 21.40625 149.10546875 C9.12356697 138.88885431 2.77176888 125.5735343 0 110 C-0.08389321 108.4092736 -0.12207501 106.81563807 -0.12025452 105.22270203 C-0.12162918 104.29027176 -0.12300385 103.35784149 -0.12442017 102.39715576 C-0.12082489 101.3865509 -0.11722961 100.37594604 -0.11352539 99.3347168 C-0.11367142 98.2610939 -0.11381744 97.18747101 -0.1139679 96.08131409 C-0.11327196 92.53726166 -0.10549444 88.99326198 -0.09765625 85.44921875 C-0.09579094 82.99013803 -0.09436757 80.53105693 -0.09336853 78.07197571 C-0.08955227 71.60292534 -0.07972956 65.13389745 -0.06866455 58.66485596 C-0.0584313 52.06238102 -0.0538668 45.45990245 -0.04882812 38.85742188 C-0.03810652 25.90493645 -0.02051689 12.95247362 0 0 Z " fill="#009685" transform="translate(206,1240)"/>
<path d="M0 0 C12.54 0 25.08 0 38 0 C38.01458252 2.93616211 38.02916504 5.87232422 38.04418945 8.89746094 C38.09467826 18.63249325 38.16129823 28.36736801 38.23571491 38.10224533 C38.28031412 44.0006039 38.31959313 49.89889506 38.34643555 55.79736328 C38.37257291 61.49686808 38.41304861 67.196112 38.46318626 72.89545441 C38.47978464 75.06255074 38.49134244 77.22969213 38.49761391 79.39684296 C38.01165075 101.29567645 38.01165075 101.29567645 48 120 C56.69289203 125.72659712 65.65341005 127.47329988 75.8828125 125.421875 C83.0880071 123.2141552 88.04851151 119.45844699 92 113 C94.81650196 106.46895251 95.44313712 100.48288466 95.43237305 93.43139648 C95.4425647 92.41571091 95.45275635 91.40002533 95.46325684 90.3535614 C95.49323714 87.02601498 95.50262999 83.69875714 95.51171875 80.37109375 C95.5285765 78.05224156 95.54672821 75.73339845 95.56611633 73.41456604 C95.61350315 67.33359616 95.64338582 61.25266309 95.66955566 55.17156982 C95.69941827 48.95740491 95.74592903 42.74336668 95.79101562 36.52929688 C95.87692014 24.35291649 95.94278264 12.17654902 96 0 C108.87 0 121.74 0 135 0 C135.09066779 14.08314807 135.16392721 28.16609965 135.20724869 42.24947453 C135.22804948 48.7902067 135.25622938 55.33072739 135.30175781 61.87133789 C135.34548392 68.19318637 135.36919345 74.51483247 135.37950897 80.8368206 C135.3868525 83.23874531 135.40119156 85.64065999 135.42292023 88.04249763 C135.61349264 109.99765755 133.6255759 127.82383775 117.7578125 144.42578125 C109.30434143 152.31648584 100.04628469 156.80885109 89 160 C88.15566406 160.24621094 87.31132813 160.49242187 86.44140625 160.74609375 C67.08055699 165.23781078 44.45894963 162.51779065 27.34765625 152.4375 C24.78812319 150.73377384 22.39026018 148.9334724 20 147 C19.22785156 146.37738281 18.45570313 145.75476562 17.66015625 145.11328125 C7.64398981 136.12441393 1.03162949 121.58972811 -0.26997948 108.22864723 C-0.36496205 105.33531771 -0.37184848 102.45647104 -0.34057617 99.56176758 C-0.34101425 98.47751495 -0.34145233 97.39326233 -0.34190369 96.27615356 C-0.33983228 92.73208908 -0.31657919 89.18851196 -0.29296875 85.64453125 C-0.28736694 83.17160806 -0.28309961 80.69868151 -0.28010559 78.22575378 C-0.26870297 71.74684302 -0.23927532 65.26813703 -0.20599365 58.78930664 C-0.17519374 52.16620656 -0.1615791 45.54307308 -0.14648438 38.91992188 C-0.11440111 25.94651057 -0.06167071 12.97330443 0 0 Z " fill="#009685" transform="translate(471,1030)"/>
<path d="M0 0 C12.54 0 25.08 0 38 0 C46.79006403 19.88571862 55.05046356 39.97946222 63.32600403 60.08340454 C67.02519566 69.06787243 70.74442336 78.04394222 74.46972656 87.01760864 C76.18824658 91.15829507 77.90446583 95.29993514 79.62109375 99.44140625 C81.94012968 105.03613537 84.26138676 110.6299306 86.58642578 116.22216797 C88.8149534 121.58227843 91.04008641 126.94378749 93.26318359 132.30615234 C94.12535849 134.3839906 94.98879089 136.46130754 95.85351562 138.53808594 C97.05271592 141.41859116 98.24756255 144.30086517 99.44140625 147.18359375 C99.80299332 148.04919418 100.16458038 148.91479462 100.53712463 149.80662537 C100.86333298 150.59674515 101.18954132 151.38686493 101.52563477 152.20092773 C101.81189224 152.89000717 102.09814972 153.57908661 102.39308167 154.28904724 C103 156 103 156 103 158 C88.81 158 74.62 158 60 158 C55.32144372 148.64288743 51.72427 138.77620874 48 129 C28.2 129 8.4 129 -12 129 C-17.445 143.355 -17.445 143.355 -23 158 C-37.19 158 -51.38 158 -66 158 C-59.11395275 139.63720733 -59.11395275 139.63720733 -55.890625 132.10546875 C-55.52656052 131.24676682 -55.16249603 130.38806488 -54.78739929 129.50334167 C-54.01226577 127.67592008 -53.23569082 125.84910929 -52.45773315 124.02288818 C-50.34649173 119.06633883 -48.2466151 114.10496946 -46.14453125 109.14453125 C-45.71415054 108.12983765 -45.28376984 107.11514404 -44.84034729 106.06970215 C-40.50781628 95.85131979 -36.21862846 85.61500124 -31.9375 75.375 C-31.20194016 73.61676559 -30.46634445 71.85854619 -29.73071289 70.1003418 C-26.24898285 61.77729233 -22.7710998 53.45264328 -19.29649353 45.12661743 C-17.6560293 41.19643411 -16.01427082 37.26679212 -14.37234497 33.33721924 C-13.22145608 30.58131093 -12.07249077 27.82460616 -10.92358398 25.06787109 C-10.21348205 23.36812097 -9.50328203 21.66841182 -8.79296875 19.96875 C-8.48224426 19.22158722 -8.17151978 18.47442444 -7.85137939 17.70462036 C-5.35415041 11.73844531 -2.68043907 5.89696596 0 0 Z M18 45 C13.69442897 55.91553218 9.51611045 66.8779078 5.38928223 77.86206055 C4.83685435 79.33231964 4.28387329 80.802371 3.73034668 82.2722168 C2.94476366 84.35920404 2.16146869 86.44703479 1.37890625 88.53515625 C0.9207251 89.755979 0.46254395 90.97680176 -0.00952148 92.23461914 C-1.05619908 94.66733746 -1.05619908 94.66733746 -1 96 C11.54 96 24.08 96 37 96 C31.40492501 78.84177002 25.28011277 61.91587016 19 45 C18.67 45 18.34 45 18 45 Z " fill="#009685" transform="translate(96,1240)"/>
<path d="M0 0 C12.21 0 24.42 0 37 0 C37 55.77 37 111.54 37 169 C25.78 169 14.56 169 3 169 C2.505 163.06 2.505 163.06 2 157 C1.0925 158.03125 0.185 159.0625 -0.75 160.125 C-9.69228202 169.04918024 -21.09056694 172.00198341 -33.3125 172.3125 C-47.57496506 172.07028031 -59.12904164 167.81085849 -69.6875 158.125 C-83.42749903 143.67736154 -86.73926143 125.7709835 -86.28125 106.44921875 C-85.63500213 90.62422395 -79.20220116 78.04414541 -68 67 C-67.42378906 66.41347656 -66.84757813 65.82695313 -66.25390625 65.22265625 C-56.74367671 56.25977805 -43.78176295 53.50131562 -31.0859375 53.74609375 C-18.78101869 54.75852378 -10.32973685 59.0030827 -1 67 C-0.67 44.89 -0.34 22.78 0 0 Z M-44 94 C-50.20334015 102.82918584 -51.27253552 110.74124449 -49.609375 121.53515625 C-47.54503172 129.0382501 -42.32591813 134.91314941 -35.8125 139 C-28.46374793 141.61288963 -21.62560775 141.80058565 -14.26953125 139.09375 C-7.34339937 135.75585512 -3.01807867 130.54791191 0.09375 123.609375 C2.58403714 116.43906547 2.73106331 109.12071758 0 102 C-4.09684004 94.25024996 -9.30894268 88.32225042 -17.80078125 85.5078125 C-27.95279527 83.16365296 -37.32680604 85.84387405 -44 94 Z " fill="#00D2B9" transform="translate(918,1019)"/>
<path d="M0 0 C1.37192431 1.3622855 2.68516583 2.78341434 3.98046875 4.21875 C2.39615422 8.12726199 -0.2858822 10.74242356 -3.24609375 13.640625 C-4.00761246 14.39789886 -4.00761246 14.39789886 -4.78451538 15.17047119 C-6.39986967 16.77467096 -8.02205334 18.37175856 -9.64453125 19.96875 C-10.74394823 21.05813107 -11.84291184 22.1479699 -12.94140625 23.23828125 C-15.62889145 25.90376885 -18.32252146 28.56290143 -21.01953125 31.21875 C-23.88476273 29.82934455 -26.23010735 28.34813706 -28.70703125 26.34375 C-38.60082488 18.79419478 -48.7845342 17.31855851 -61.01953125 18.21875 C-73.17811215 20.60145062 -82.78536964 26.09092374 -90.01953125 36.21875 C-98.26861667 49.48901786 -99.95998732 64.28263679 -96.45703125 79.34375 C-93.74278394 89.84974821 -88.28765919 99.21712921 -79.01953125 105.21875 C-66.7320825 111.29131154 -53.87235412 113.6983805 -40.51953125 109.59375 C-35.29862799 107.59169631 -31.21938149 104.86147724 -27.01953125 101.21875 C-25.94546007 100.31987953 -24.86984682 99.42284956 -23.79296875 98.52734375 C-22.87773437 97.76550781 -21.9625 97.00367188 -21.01953125 96.21875 C-8.17294034 107.98352273 -8.17294034 107.98352273 -2.51953125 113.75 C-0.14831983 116.07181118 2.39625051 118.13876946 4.98046875 120.21875 C3.9378716 126.57295696 -1.66553289 130.49319464 -6.609375 134.1171875 C-27.24760306 147.67860565 -51.92317 151.50638668 -76.14453125 147.03125 C-98.08457894 141.82596152 -116.87356251 130.44788642 -129.01953125 111.21875 C-141.02070061 90.58055617 -145.21691164 64.72516102 -139.05078125 41.40234375 C-131.95469617 19.49586899 -119.84665051 2.20944667 -99.01953125 -8.78125 C-68.87090168 -23.81536661 -26.22906878 -23.13434307 0 0 Z " fill="#009685" transform="translate(340.01953125,1043.78125)"/>
<path d="M0 0 C12.8016804 8.93489717 20.3685292 20.44722773 24.1875 35.5625 C25.42945845 44.56669873 25.1875 53.72305252 25.1875 62.8125 C-1.2125 62.8125 -27.6125 62.8125 -54.8125 62.8125 C-50.36142878 71.71464245 -47.83152316 76.40489073 -38.98046875 79.9453125 C-30.67075635 82.219981 -21.77638609 81.69403521 -13.9453125 78.1015625 C-10.63515579 76.10091833 -8.33576099 73.73417062 -5.8125 70.8125 C-0.24693475 72.31431919 4.05686569 75.05010237 8.8125 78.1875 C9.56273437 78.66960937 10.31296875 79.15171875 11.0859375 79.6484375 C14.82763929 82.08983158 18.18380117 84.45916427 21.1875 87.8125 C10.1745754 101.00123037 -2.29905798 109.38829992 -19.88012695 111.11352539 C-22.96858938 111.24795706 -26.03383741 111.2803859 -29.125 111.25 C-30.75912842 111.23864014 -30.75912842 111.23864014 -32.42626953 111.22705078 C-49.18976912 110.88605606 -63.2336854 105.87647193 -75.5234375 94.23046875 C-88.34447176 80.68743085 -91.46944354 65.1782657 -91.125 47.125 C-90.51176111 32.81609268 -85.11131029 19.47745674 -75.265625 9.01171875 C-55.27312902 -8.91149022 -23.56364999 -13.95643181 0 0 Z M-51.4375 28.8125 C-53.95037768 32.4675948 -54.8125 34.25189107 -54.8125 38.8125 C-39.9625 38.8125 -25.1125 38.8125 -9.8125 38.8125 C-10.82852245 29.66829794 -11.34543334 27.34456907 -17.8125 21.8125 C-29.37379281 14.69785827 -43.30130403 18.79872035 -51.4375 28.8125 Z " fill="#00D2B9" transform="translate(1068.8125,1080.1875)"/>
<path d="M0 0 C12.87 0 25.74 0 39 0 C39 40.92 39 81.84 39 124 C59.13 124 79.26 124 100 124 C100 135.22 100 146.44 100 158 C67 158 34 158 0 158 C0 105.86 0 53.72 0 0 Z " fill="#009685" transform="translate(803,1240)"/>
<path d="M0 0 C12.87 0 25.74 0 39 0 C39 40.92 39 81.84 39 124 C59.13 124 79.26 124 100 124 C100 135.22 100 146.44 100 158 C67 158 34 158 0 158 C0 105.86 0 53.72 0 0 Z " fill="#009685" transform="translate(361,1030)"/>
<path d="M0 0 C12.54 0 25.08 0 38 0 C38 55.77 38 111.54 38 169 C25.46 169 12.92 169 0 169 C0 113.23 0 57.46 0 0 Z " fill="#00D2B9" transform="translate(1182,1019)"/>
<path d="M0 0 C12.54 0 25.08 0 38 0 C38 55.77 38 111.54 38 169 C25.46 169 12.92 169 0 169 C0 113.23 0 57.46 0 0 Z " fill="#00D3B9" transform="translate(1116,1019)"/>
<path d="M0 0 C13.2 0 26.4 0 40 0 C40 52.14 40 104.28 40 158 C26.8 158 13.6 158 0 158 C0 105.86 0 53.72 0 0 Z " fill="#009786" transform="translate(919,1240)"/>
<path d="M0 0 C12.87 0 25.74 0 39 0 C39 52.14 39 104.28 39 158 C26.13 158 13.26 158 0 158 C0 105.86 0 53.72 0 0 Z " fill="#009785" transform="translate(543,1240)"/>
<path d="M0 0 C9.9 0 19.8 0 30 0 C30 20.13 30 40.26 30 61 C20.1 61 10.2 61 0 61 C0 40.87 0 20.74 0 0 Z " fill="#00D2B9" transform="translate(1253,1030)"/>
</svg>
