<?xml version="1.0" encoding="UTF-8"?>
<svg id="Livello_1" data-name="Livello 1" xmlns="http://www.w3.org/2000/svg" viewBox="0 0 2560 2560">
  <defs>
    
  </defs>
  <path class="cls-2" d="m888.23,1625.29l390.64,177.13,368.03-166.88c25.45,18.83,85.83,51.88,104.59,63.13l-472.62,166.91-498.52-177.26c30.67-18.1,73.77-43.81,107.88-63.04Z"></path>
  <path class="cls-1" d="m1279.73,1744.66s-244.13-130.06-346.12-184.39c-26.96-14.36-43.57-42.65-42.96-73.2,1.53-77.11,4.53-228.09,6.73-339.04.57-28.48,16.03-54.58,40.74-68.75,24.71-14.17,55.05-14.34,79.92-.44,110.57,61.79,258.95,144.71,258.95,144.71,0,0,152.44-83.97,264.83-145.88,24.88-13.7,55.11-13.4,79.7.81,24.59,14.2,39.97,40.23,40.53,68.63,2.21,111.04,5.22,262.65,6.75,339.97.61,30.54-16,58.83-42.96,73.2-101.99,54.33-346.12,184.39-346.12,184.39Z"></path>
  <path class="cls-1" d="m800.26,986.96c-29.57,43.35-55.31,101.31-78.1,178.15l80.69,41.33c7.11,56.41,43.94,305.39,53.72,380.82-13.94,22.93-43.62,46.09-76.63,46.78-3.55-45.86-16.86-131.51-29.05-238.23l-23.62,41.36c7.32,44.57,19.81,137.99,29.62,197.3-25.4.42-92.1-21.71-121.96-99.18l-32.14,9s-45.95-119.66-9.51-237.01l21.7-2.01c5.93-60.06,26.41-191.27,155.13-364.5l30.14,46.2Z"></path>
  <path class="cls-1" d="m1767.65,1008.2c28.89,44.63,53.74,103.71,75.33,181.52l-81.3,37.77c-7.97,56.08-48.62,303.36-59.56,378.33,13.58,23.53,42.89,47.99,75.88,50.13,4.25-45.69,18.87-130.72,32.71-236.87l22.98,42.38c-8,44.23-21.93,137.08-32.64,195.93,25.38,1.53,92.4-17.66,123.44-93.79l31.99,10.41s47.77-117.6,13.15-236.51l-21.66-2.96c-5-60.3-23.46-192.37-149.47-371.18l-30.84,44.86Z"></path>
  <path class="cls-2" d="m1280.93,694.77c167.5,1.95,323.68,65.94,464.29,215.36l-57.49,71.15c-124.53-117.67-261.17-173.37-407.62-179-146.48-.82-283.94,48.88-410.24,161.04l-56.38-73.65c142.85-143.19,299.97-200.3,467.44-194.9Z"></path>
</svg>